/* XPM */
static char *_9a241b26a68439dbc158b231fa1bf9eekArmhOeiaIXp6Oz[] = {
/* columns rows colors chars-per-pixel */
"50 50 152 2 ",
"   c #1D1D24",
".  c #1E1F28",
"X  c #1F2127",
"o  c #1F2129",
"O  c #24252D",
"+  c #25282F",
"@  c #262730",
"#  c #272931",
"$  c #2A2C35",
"%  c #2C2F38",
"&  c #2D3037",
"*  c #2E313A",
"=  c #31353E",
"-  c #333540",
";  c #373C45",
":  c #373C44",
">  c #373C46",
",  c #373D46",
"<  c #353A43",
"1  c #383B44",
"2  c #383B45",
"3  c #383B46",
"4  c #383C45",
"5  c #383C46",
"6  c #383D46",
"7  c #393D46",
"8  c #383C47",
"9  c #383D47",
"0  c #393D47",
"q  c #3A3E47",
"w  c #393D46",
"e  c #373E48",
"r  c #393F48",
"t  c #393F49",
"y  c #3A3E48",
"u  c #3A3F48",
"i  c #3B3F48",
"p  c #3A3F49",
"a  c #3A3F4A",
"s  c #3A3E49",
"d  c #3A4049",
"f  c #3B4049",
"g  c #3A404A",
"h  c #3B404B",
"j  c #3B414B",
"k  c #3C4049",
"l  c #3C404A",
"z  c #3C414A",
"x  c #3C404B",
"c  c #3C424B",
"v  c #3D414C",
"b  c #3C424C",
"n  c #3D424C",
"m  c #3C434C",
"M  c #3D434C",
"N  c #3C424D",
"B  c #3D424D",
"V  c #3C434D",
"C  c #3D434D",
"Z  c #3E424D",
"A  c #3E434E",
"S  c #3F434E",
"D  c #3D444D",
"F  c #3E444E",
"G  c #3F444E",
"H  c #3F444F",
"J  c #3E454F",
"K  c #3F454F",
"L  c #3E464E",
"P  c #3E464F",
"I  c #3D434C",
"U  c #3E4650",
"Y  c #3E4750",
"T  c #3F4750",
"R  c #3F4650",
"E  c #3F4851",
"W  c #40444F",
"Q  c #40464F",
"!  c #40444F",
"~  c #424551",
"^  c #404650",
"/  c #404651",
"(  c #414651",
")  c #404751",
"_  c #424651",
"`  c #414651",
"'  c #404951",
"]  c #414951",
"[  c #414852",
"{  c #404952",
"}  c #414952",
"|  c #414953",
" . c #424852",
".. c #424953",
"X. c #414A53",
"o. c #424A53",
"O. c #414A54",
"+. c #414B54",
"@. c #424A54",
"#. c #434A54",
"$. c #424B54",
"%. c #434B54",
"&. c #424B55",
"*. c #434B55",
"=. c #444B54",
"-. c #444B55",
";. c #454B55",
":. c #424C55",
">. c #434C55",
",. c #434D56",
"<. c #444C54",
"1. c #444C55",
"2. c #454D55",
"3. c #444C56",
"4. c #444D56",
"5. c #454C57",
"6. c #454D57",
"7. c #454E57",
"8. c #464E57",
"9. c #434B54",
"0. c #454D58",
"q. c #454E58",
"w. c #464E58",
"e. c #464F58",
"r. c #474F58",
"t. c #464E59",
"y. c #464F59",
"u. c #474F59",
"i. c #474F5A",
"p. c #464F58",
"a. c #475059",
"s. c #475059",
"d. c #48505A",
"f. c #48515A",
"g. c #48505B",
"h. c #4A515C",
"j. c #49525C",
"k. c #4A535C",
"l. c #4A535D",
"z. c #4B545E",
"x. c #4B555E",
"c. c #4D545E",
"v. c #4D565F",
"b. c #49525C",
"n. c #4D5660",
"m. c #4E5762",
"M. c #4E5661",
"N. c #515965",
"B. c #525C66",
"V. c #555E6A",
"C. c #58646E",
"Z. c #5E6973",
/* pixels */
"< < - - $ n.l.0.8.a.8.7.a.,.8.0.7.8.8.8.+.8.8.7 < < < - < = = = h 7 = = = = = * $ $ = = < - - = - - ",
"< 1 < = # l.0.0.8.8.a.,.a.,.,.,.7.,.+.,.+.X.,.: < < < 1 < = = = < 1 = = = = = = & $ 1 = - - = - - - ",
"7 7 < = # l.b.b.8.,.8.0.0.,.8.8.8.X.+.+.X.,.,.< < < k k : < = = = = = = = = = = # $ f = - = - - < > ",
"< < < * O v.0.8.8.8.X.X.8.,.,.8.,.8.+.+.X.,.,.< 7 < W W < = = * < <.= = * & $ % + $ f = - - < 1 < < ",
"% $ $ O   v.a.8.8.8.X.,.,.,.X.*.+.8.X.8.,.X.,.< A - J k = = = $ * < # # O O # # + O k < = * = = % % ",
"< < < A $ x.0.,.,.,.X.,.X.X.8.,.+.8.,.,.*.X.8.= k A t * * = = $ - A h t k A h j J m f J 7 . $ < < < ",
"= * = = $ x.8.,.,.8.*.=.*.X.X.X.+.<.8.8.X.X.T * h = * * = * = # T A ) *.8.,.8.*.,.+.X.J J * < - - - ",
"= - = = % x.8.,.,.8.8.8.X.X.X.X.X.+.8.X.X.X.t * : = * * * * = # < i T *.X.X.*.8.8.8.X.W W < < = - - ",
"= = = = $ m.a.0.8.a.,.,.X.) X.X.X.X.*.X.X.*.t * h * * * & * * @ : A T ) ) ) *.8.8.+.+.<.+.< < = - - ",
"= = = = # V.0.0.8.8.0.0.*.=.8.X.X.X.*.*.X.X.) % h * & * & & * @ h T ) ) ) =.X.=.8.<.<.+.+.d = = = = ",
"- = = = $ N.a.a.8.,.8.8.X.X.8.X.X.X.=.*.X.) =.% h = * * % % & @ J T T )  .) =.*.+.+.+.+.+.< - * % % ",
"% = = = $ b.a.,.,.8.,.,.8.,.X.X.J A A i W  .8.$ 7 = * * % * * o J X.*.X.)  .=.*.+.X.+.+.+.< * * - % ",
"% % & * $ D X.X.X.T X.J X.k 7 1 < = < 1 t k ) O * = = * * & % o j E ,.X.T 8.*.*.<.X.X.*.J - < = - = ",
"O O O $ $ * < : & $ - = = = = = = # O + + + # X + # # + $ # O . $ T t t h h < < < = = * & + O O O O ",
"8.- ,.0.a.a.l.l.=.- - = < = = = = & * b.<.<.<.+.7.a.J = O # O O O & $ $ $ # * O @ e T *.<.W m J ) =.",
"*.- a.8.,.,.,.,.J = = = = = 1 = = $ < 8.8.8.+.8.,.8.,.h h - * # - < - - - - - % : a.l.b.,.X.8.a.=.0.",
"=.- =.=.8.*.,.=.L = * = = - = - = $ f <.8.,.X.X.,.,.*.h < * $ * - % * - * * - # < E s.E 8.,.x.a.a.0.",
"8.- X.X.,.8.X.X.J = = * * * * & * $ f +.,.X.X.X.X.X.*.i $ + * * * % % * * * * # d s.s.E ,.,.8.8.0.,.",
"*.- W X.X.8.8.X.D # < h D h = * $ O < 7.,.X.*.X.,.X.X.i + = * & % * * % * - * # j i.E E ,.,.7.8.0.8.",
"8.= X.X.8.+.<.+.h m a.a.8.l.a.a.a.* < 8.8.*.X.X.X.X.X.t & * & * * * % * % * * # t *.) *.T ,.a.8.8.,.",
"=.- t W X.W J k f J ,.+.8.b.*.8.7.- < a.,.*.*.X.| | | > $ * * % % % * * * & * @ < ) W  . .X.0.8.,.,.",
"X.< O = = = = % & m 8.,.b.8.X.8.7.- < a.,.E *.X.*.*.) > $ & % & % % % % * * & o 7 ) W ~ ) =.0.8.,.8.",
"*.< = = = = = = = h 8.8.,.X.X.8.7.* - a.,.*.*.X.U T T e % & % % & % % * - & & @ ) ) ~  .X.8.8.,.,.8.",
"*.7 = < = = = = * J 8.,.X.X.*.8.7.& < ,.*.X.j h a U T > & * % % % * & - * & & O ) ) ) ~ X.8.8.*.,.,.",
"X.< - - - = = - = J <.X.,.X.,.8.8.$ * < - - = = - = = O = * % % % % & * * * & @ ) W ) ) X.,.8.X.8.,.",
"*.< - - = - = = * ) X.X.8.X.,.8.X.# & = - 1 1 1 < - = O % = % % % % % * * * & @ ;.) ) =.X.X.J 8.8.,.",
"X.- - = - = = = * X.X.X.X.X.8.X.J = k = = = = - = = = % % * % % & & * * * * % o h. .W  .X.J X.8.+.8.",
") = = = = = = < & ) *.X.X.W W W A % 7 = = = = - = = = * % % * * * * * * * * % o ) =.) ) X.W J *.X.X.",
"% $ # $ % # % % O 7 X.J h h h h 7 % 7 = = = = = = = = * * % * $ * * = = * % % . # - - = = * $ * % = ",
" .) T k i A i 1 J X.A 7 h 7 7 : t $ t = = = = = = = = - = * = * * = = * * = #   1 W 1 3 1 q # < k W ",
"*.*.X.X.X.*.8.*.,.8.8.<.+.+.,.,.A * 7 - = = = = = = = * * * * * * = = = * % $ O t = - - = = $ J 8.X.",
"X.) X.T X.X.) ) X.T T X.X.X.T *.7 * : = - - - = = = = * * * * * * * * * & % % O t = = = = = * b.X.*.",
"X.) ) *.*.=.X.) X.X.) *.X.X.*.X.y = < - - - - = = = = = = % % * = * % * * * * O < = = = = = $ ;.*.*.",
"X.X.X.X.X.X.X.X.X.X.X.X.*.*.X.X.y * 1 - - - = - - = = = = = % * * = % % $ * * O = = = = = = * ;.*.*.",
"*.) ) X.) ) W X.X.X.X.=.) i i A < % 1 - - - - < - - = = < = % = = * & % * * = O < = = = = = * 2.=.5.",
"T ) ) T X.X.=.) J J t t 1 t A W < # < < - - - - < = = $ = = = * * * = * * * * O = = = = = $ * 2.| | ",
"* = = * & * - < = = = = = - < * O . O $ % % % % % * % O - = = = * * % % % = $ . * $ $ $ # $ # $ - % ",
"- < < = . X.) W ) X.X.=.l.i.,.- l.*.=. .1 < * . @ @ # $ 1 * % # $ $ + O . O O       = = = 1 = $ - < ",
"* = - = % b.W W W W W W ~ ) J % l.l.*.*.=.0.=.@ Z.h.h.N.l.i.h.l.,.=.X.W ! ;.;. .W % < = = = = = $ % ",
"- = - = $ b.X.X.) W W ) W X.X.* 0.A T *.*.=.U $ C. . . .) =.8.8.,.X.) )  . .Z ~ 1 * 1 = = * * * - - ",
"- = - = % v.0.=.W W W W ) ) ) = t.) ) =.) | A $ N.X.=.X.X.X.X.X.) ) ~ ~ W W a a 1 * < - = % = = - - ",
"= = = < % v.0.,.) ) W W )  .) % i.) ) )  .) a O x.W ) ) X.W W ' ) ) A A W ~ a a i - < - * = = - * - ",
"- = = - $ l.0.*. .) W ) ~  .W = 0.=.=.X.) ~ 1 O i.) ) W W W X.W ) ) ~ ~ ~ A ~ A Z * < - % - - - - - ",
"- - = - # b.*.) ) W ) W W W i $ U A t t ~ A <   1 < = = 1 1 = < 7 1 3 3 1 < - % * $ - * - * - - - - ",
"= = - - # k t < 7 t 1 < t J A 1 < $ * = = < < =   = = = * * * #   $ O @ $ $ % * # O - * = - - - - - ",
"- - - - # Z.0.8.*.*.8.8.=.i.b.=.T N.B.v.a.8.b.J = 7 - - - = < * - n.=.*.a 1 < 3 < @ - * = - - - - - ",
"- - - - $ B.a.8.,.8.i.b.b.i.b.*.8.l.8.8.,.,.*.7 = 7 < < = - = * ) | < - = = = = % $ - - * - - - = - ",
"- - - = * m.a.0.a.0.l.l.i.l.8.,.b.l.a.,.8.+.,.7 < 7 < = - - = & A *.< - = = = = % $ - - * - - * < = ",
"= - - - % M.h.i.i.h.i.b.b.8.,.8.a.b.b.a.8.X.+.7 < : - 7 < < = * k A = = = = = = & $ = = = = < = = - ",
"- - - - % n.b.i.i.0.0.b.b.7.8.8.8.a.a.a.,.,.X.7 < < < - < = * * A A = = = = = = % # = = = = = = - - "
};
