/* XPM */
static char *a433c25277a9409df4920d58076fb665oxjdcLqzyMKx8IKn[] = {
/* columns rows colors chars-per-pixel */
"50 50 143 2 ",
"   c #110E0A",
".  c #14130D",
"X  c #171511",
"o  c #181712",
"O  c #1C1B15",
"+  c #1F1E18",
"@  c #201E17",
"#  c #211F19",
"$  c #24221B",
"%  c #28261F",
"&  c #272620",
"*  c #292720",
"=  c #2D2B23",
"-  c #312E26",
";  c #312F29",
":  c #313027",
">  c #34332B",
",  c #39362E",
"<  c #3A392F",
"1  c #393730",
"2  c #3C3B32",
"3  c #413E35",
"4  c #413F38",
"5  c #434137",
"6  c #45433A",
"7  c #49463C",
"8  c #4B493E",
"9  c #4E4C42",
"0  c #514E44",
"q  c #535146",
"w  c #565449",
"e  c #59564B",
"r  c #5B594D",
"t  c #5E5C51",
"y  c #615E52",
"u  c #646255",
"i  c #666459",
"p  c #68665A",
"a  c #6C6A5D",
"s  c #6F6D61",
"d  c #706E62",
"f  c #716F68",
"g  c #747265",
"h  c #777568",
"j  c #79776A",
"k  c #7D7B6D",
"l  c #7F7D70",
"z  c #807E6F",
"x  c #817F73",
"c  c #817F72",
"v  c #807E71",
"b  c #817F71",
"n  c #828071",
"m  c #828072",
"M  c #828073",
"N  c #838173",
"B  c #848273",
"V  c #838174",
"C  c #838175",
"Z  c #838077",
"A  c #848274",
"S  c #858374",
"D  c #848275",
"F  c #858375",
"G  c #848276",
"H  c #858376",
"J  c #868476",
"K  c #868576",
"L  c #878576",
"P  c #868477",
"I  c #878577",
"U  c #848274",
"Y  c #888677",
"T  c #888677",
"R  c #858378",
"E  c #878578",
"W  c #878579",
"Q  c #878578",
"!  c #888678",
"~  c #898778",
"^  c #888679",
"/  c #898779",
"(  c #89877A",
")  c #89877B",
"_  c #8A877B",
"`  c #898779",
"'  c #8A8879",
"]  c #8A887A",
"[  c #8B897A",
"{  c #8A887B",
"}  c #8B897B",
"|  c #8C8A7B",
" . c #8A887C",
".. c #8B897C",
"X. c #8B897D",
"o. c #8C8A7C",
"O. c #8D8B7C",
"+. c #8D8B7D",
"@. c #8D8B7E",
"#. c #8C8A7F",
"$. c #8D8B7F",
"%. c #8E8C7D",
"&. c #8E8C7E",
"*. c #8F8D7E",
"=. c #8E8C7F",
"-. c #8F8D7F",
";. c #8C8A7C",
":. c #908E7F",
">. c #908E7F",
",. c #8D8A80",
"<. c #8F8D80",
"1. c #8F8D81",
"2. c #8F8D80",
"3. c #918F80",
"4. c #908E81",
"5. c #918F82",
"6. c #918F83",
"7. c #928F85",
"8. c #918F81",
"9. c #929081",
"0. c #929082",
"q. c #939182",
"w. c #929083",
"e. c #949283",
"r. c #939184",
"t. c #929085",
"y. c #939185",
"u. c #949284",
"i. c #979587",
"p. c #949284",
"a. c #989687",
"s. c #96938A",
"d. c #979488",
"f. c #989688",
"g. c #989689",
"h. c #999788",
"j. c #9D9B8F",
"k. c #9B998C",
"l. c #9E9C91",
"z. c #A09E91",
"x. c #A5A397",
"c. c #A3A194",
"v. c #A8A698",
/* pixels */
"i k ^ b k Y ^ 4.k r $ X 5 r j 2.g.y.7 = q s k v G { [ K [ j G $.z.h 2 o < y z ^ ^ =.4.e.4.=.h 7 O 3 ",
"9 d E E k { ,.l 3 @ > , + $ 1 w p j 2 : q s k z z z z v %.k B 3.4.u o = 8 b ^ | Y | a.:.p.e.4.Z 4 $ ",
"2 y { =.Q ) a 2 = e a K f 9 : + = 5 : = 8 s v { v z l B G l K g a 8   3 w | ^ Y >.Z :.e.4.a.4.k.) $ ",
"= 0 k b Z u - , j :.:.| K =.x f 6 $ O $ 5 y z [ n G Z K K G g t r = . 7 u B Y | T =.e.:.| :.4.a.x.9 ",
"@ 7 i k y = 6 h | >.:.~ n $.y.y.Z u 6 + = 8 i n $.>.n K K i t e 7 O @ , r g | j n >.~ e.B B Y | d.s ",
"$ < p r = t B Z >.>.| K B =.l ^  .s.,.r # & 6 r ~ ~ j k r 5 < % o - d # 5 w B Z | | $.| k d k n #.b ",
": % 6 = w { B Y { ~ Y Y ^ $.n k j l 7.#.y = $ 2 r a q = + o % 2 7 < , O o , 0 g z B ^ Z a i a j k u ",
"+ X % 0 j B k n B z Z { K { n k l h Z ,.s a = # = = + + > 7 e i i s i e > + - 0 u g b a i i y 9 , = ",
"t : ; e g k d n Y { n n n K | $.G k v %.a G 6 O : 9 r i g j T ' z Y ^ j p w - # > e i i r 6 = # = 9 ",
"Z j % e j k j k { :.Y Z n ~ $.O.B Z k y./ s $ 5 g ~ %.>.>.' O.%.T | 5.5.^ s y 6 % % 7 e 3 + = t k k ",
"{ 2.= 6 u h k n 9.Z n K Z ~ Z K K / l / { ; < g B [ %.>.%.| | %.| ' >.| 4.k.Z y q 5 $ $ @ 1 i n K k ",
"2.G = + , e g $.$.n B { S $.K l / / G %.3 = q k S >.O.~ %.| | %.>.' B B c :.k.e.a i 2 K < i $.9.E Z ",
"j , : 6 $ + 3 e a { e.*.[ [ k b G l / y $ 5 g E T >.T | %.T K T { z k B z ^ 4.=.i 5 $ , % a K n l #.",
"= , i #.k , + > 8 p d g z n K { %.Z g ; < u n z n %.>.>.%.%.| B B b B Y =.4.Q d 3 + : , + 2 9 e t 5 ",
"9 s 2.n #.p.9 + $ = : : 2 8 r i s g 5 > e k K n k n a.>.>.T K n Y Y | | ^ ^ k 7 $ 5 u z w + , 3 + - ",
"s E l j g 4.l % < 8 5 : % $ + $ : 1 $ 6 a $.$.B S n K >.>.g T | | i.:.{ k Z y @ 5 i k :.,.7 , 9 - 0 ",
"K { E j j k G : 3 e k Z R ) j t 5 $ & 6 u ^ ^ Z S B g :.4.z a.9.>.e.a.9.k a - , u b =.$.=.Z 0 O , g ",
"k #.%.E k k E 2 < q S { R E ,.l.l.p $ 2 r k $.Y z z z Y B | h.B k a.h.:.b 0 $ w j 9.| B j k Z 1 % u ",
"j k / k k k #.8 : r [ $.Z l B { )  .2 = e d { Z b k n S z | 9.Z g $.i.K d * 1 p 4.a.$.z h d 4.i @ w ",
"g n 2.k j Z %.y $ e $.K v j n Z l ,.f # 3 r g k Z n ~ K K $.K j g | Z g e O q k 4.i.=.z h k ^ 4.% 7 ",
"k >.O.a.k k $.g $ q k S v l / y.x x  .; ; 9 r i j n n T $.K j n g g g a 3 % i g k Z j B n B k 7.- 5 ",
"a K { K [ g n u $ < u j k E $./ j Z Q 7 o , 9 e y g j z k s j k a e r 0 % O e j j g B e.:.h k i $ > ",
"q a k j a e , $ o X $ : 7 e i s s e 1 $ # o # , 7 r a s p r r r 8 > $ O = $ = q s h Z :.k h w # = + ",
"$ 3 9 7 = o O % 3 9 q % X X % % $ O 1 r u t > o o % , 5 7 7 < $ . $ 6 a 2.j , @ = 7 u p e , % r g w ",
"< O O O % q g n ^ 2.d.#.u = X % 3 w s Y 4.=.#.s 5 @   O # O # 2 w i k O.a.j.e.k 9 = # $ % 8 a k | Z ",
"j @ O 5 i [ 9.{ n b n g.d.6 , i k | :.e.p.=.=.h.i.k 7 o X - r j =.{ :.:.| | | k.v.G e = % a { { K { ",
"w @ < u K K { v b Y Z i.y.- 7 a j O.e.:.$.=.$.e.i.p.=.6 . w y j { | { =.Y B | >.c./ k 0 # t n Z n Z ",
"$ o 5 g { n v n B z B p.i + q i a Y >.| Y K z ~ >.| i.p o 6 y ^ 9.a.9.K { O.:.~ k.G k r % u l k s 9 ",
"< o 5 g [ k Z K B K | p.> % y s s >.>.>.| z B ~ { n k.k - : r Z 9.g.{ K k e.$.K 2.$.G u + : 6 , $ - ",
"k $ 3 d K { n S K | 4.h O 5 p a j >.i.e.:.S ~ ~ { ^ ) x 1 $ r k K K z n k >.>.$.E d.#.i > . o : 0 h ",
"K 7 : u K i.>.>.~ i.{ 6 @ q z k | a.e.>.O.~ { O.| { { ^ 9 o q a k k k z n ~ K K n 9.n p < @ 0 g Z { ",
"9.j $ 0 d n n ~ { n e O = y ' ' :.>.O.O.>.O.{ =.:.>.p.k.p O 3 u a d g k n B K / / $.k t $ 8 d Y e.$.",
"{ =.* ; w a g g e 8 * X > y Y Y K ~ S | O.O.Z n | :.i.c.k = > t a i g b Y | e.:.B =.a - > p g Z B Y ",
"l ^ % O o % : - > < 6 $ < r k d { { K S S { n b Z z ^ E E 2 = 0 a k k Y :.p.a.:.Z g , $ r k k k g z ",
"l 9 o 5 0 i p a g a k > > q g g K K v v ~ K n b n k b K E 7 $ 9 k ~ >.:.:.e.e.^ $.e O 7 d Z z g s p ",
", + 6 d a k { $.Z k n q $ 7 s k k v k k S k K K K l #.=.#.9 O 1 p | a.$.Y e.e.| k - - e B | j i j j ",
": 8 w g n { ^ k Z ^ Z j o > u k v n n K K G K $.Z $.i.K a 8 X , w i z n K { Y b 9 $ q u g k a a w $ ",
"w q q y k ~ z k b =.j _ @ % 8 z { 3./ { [ { n Z Z Y g e < + . + < 7 e y u a h i O 1 i p s a t = o 5 ",
"u d j h k { n B | 4.z s., $ 5 e u a p s k K 3.2.k q , % % 2 0 7 > o - < 7 3 3 = X ; > = $ O . % r p ",
"n n K ^ n | b { e.b z i.8 O < 6 8 9 9 8 w e q 8 5 + = w y y g j u 3 : = = $ @   . + * 1 6 5 o = y S ",
"e.>.~ >.9.K E i.^ b =.) 2   . . + + O o O + + + . 6 d i y d l =.k r , , g = % $ 9 t d k E k 9 O q k ",
">.{ { $.E n 9.#.B =.4.i @ 6 t t e 7 4 > = $ + O + a a a h j k b *.i y < O $ 8 u g E O.n K Z l : < u ",
"B 4.Z { { { 9.n ^ =.j $ < u l Z n K :.p.y.Z d & : g l l b Z =.K $.k r 6 X 7 i g E { O.$.$.Z l u % w ",
"k $.{ K { B n k B ^ 2 @ w a j j k z Z | E 2.p o q B 2.n n e.d.n / %.i e @ 5 r K $.#.k K $.E l g + 5 ",
"u g g d g k j Z d - $ % p Y Z j b =.=.Y { { : > a n k g k Y | K M l E t % = y B K { n S >.k j l = = ",
": - % - - > 2 5 = 8 s % u Y 9.j k K ^ 4.i.0 $ r { e.n n $.:.a.Y k M #.g 5 o 9 j k K 9.a.:.b j s % O ",
"2 7 w 0 7 2 = $ o 8 h % 5 a ^ k Z 4.=.,.i # 2 k a.k.9.>.:.9.i.k l l j g 9 . > q u p k K Z p t : o = ",
"h n K j j h k j y 2 = o = h K k b =.2.i $ = a S O.$.{ { | :.K Z y.y.g t q . o o + $ % , , $ o = 8 i ",
"z k j j z z z Y 4.) s # 6 ^ b Z =.4.k = % 9 k k k K b k k :.n :.p.s.i i $ $ 5 w e 9 6 < O . O 7 e s ",
"h k z ' Z z z | 9.b 7 # w k ^ ^ | l.e # 6 g b k k B 2.j k l n 9.d.E i : O 5 u d j K K K d w = $ 3 r "
};
