/* XPM */
static char *_cba05a7394c492986bd0b91951c5262Mu8JBqjKOBall8TT[] = {
/* columns rows colors chars-per-pixel */
"50 50 193 2 ",
"   c #33321F",
".  c #393F1C",
"X  c #2E2B2E",
"o  c #302B27",
"O  c #332E2E",
"+  c #2F3327",
"@  c #2E3A21",
"#  c #2C322C",
"$  c #373525",
"%  c #383622",
"&  c #353A22",
"*  c #3B3E24",
"=  c #34332D",
"-  c #39352D",
";  c #363B2C",
":  c #3B3C2C",
">  c #2E2A30",
",  c #332D33",
"<  c #382E34",
"1  c #342E39",
"2  c #3A2E39",
"3  c #2D3232",
"4  c #343333",
"5  c #3A3434",
"6  c #363933",
"7  c #3B3C34",
"8  c #35343A",
"9  c #3C353C",
"0  c #3C3B3B",
"q  c #413D33",
"w  c #41373E",
"e  c #423C3C",
"r  c #384018",
"t  c #3D4327",
"y  c #3E4926",
"u  c #3B422C",
"i  c #3D4334",
"p  c #3D4339",
"a  c #4A5B1D",
"s  c #43442C",
"d  c #434B2D",
"f  c #4B5726",
"g  c #4C5B21",
"h  c #49562D",
"j  c #51582B",
"k  c #424334",
"l  c #444A34",
"z  c #494C34",
"x  c #44433B",
"c  c #49473D",
"v  c #444A3B",
"b  c #4B4C3D",
"n  c #495136",
"m  c #4D5935",
"M  c #45543A",
"N  c #4B533E",
"B  c #4F593F",
"V  c #50543F",
"C  c #3D3641",
"Z  c #3D3B43",
"A  c #3F3F49",
"S  c #413541",
"D  c #433C43",
"F  c #483E46",
"G  c #433E49",
"H  c #4B3E4A",
"J  c #3F4341",
"K  c #3F404B",
"L  c #444244",
"P  c #4A4545",
"I  c #464945",
"U  c #4B4C43",
"Y  c #45434B",
"T  c #4B454C",
"R  c #45484B",
"E  c #4C4A4D",
"W  c #524B46",
"Q  c #51464E",
"!  c #524C4D",
"~  c #584E4E",
"^  c #4D5344",
"/  c #4E524B",
"(  c #525546",
")  c #515A44",
"_  c #53524C",
"`  c #58564F",
"'  c #535A4D",
"]  c #474550",
"[  c #4B4651",
"{  c #4D4B52",
"}  c #4E4E58",
"|  c #514553",
" . c #534D53",
".. c #594F55",
"X. c #524558",
"o. c #534E59",
"O. c #594F58",
"+. c #4E5255",
"@. c #545255",
"#. c #5A5355",
"$. c #555A54",
"%. c #5A5A55",
"&. c #55525B",
"*. c #565159",
"=. c #565658",
"-. c #57545B",
";. c #57535C",
":. c #57545D",
">. c #55535A",
",. c #585158",
"<. c #5A5358",
"1. c #58535A",
"2. c #5B535B",
"3. c #585359",
"4. c #5B5559",
"5. c #5A5659",
"6. c #59545B",
"7. c #5A545B",
"8. c #59575B",
"9. c #5B575B",
"0. c #595659",
"q. c #5D5458",
"w. c #5E545B",
"e. c #5C575A",
"r. c #59525C",
"t. c #5A535C",
"y. c #59545D",
"u. c #5B545C",
"i. c #5B575D",
"p. c #59575D",
"a. c #5D555D",
"s. c #5C565C",
"d. c #5B555B",
"f. c #56595C",
"g. c #585859",
"h. c #5B5858",
"j. c #5D595B",
"k. c #5E5A5A",
"l. c #5D595C",
"z. c #5F5A5C",
"x. c #5F5B5E",
"c. c #5E595D",
"v. c #5B5A5C",
"b. c #625E56",
"n. c #61565B",
"m. c #615B5B",
"M. c #605A5D",
"N. c #60595E",
"B. c #62595E",
"V. c #615A5F",
"C. c #645B5F",
"Z. c #625D5C",
"A. c #625B5C",
"S. c #54624C",
"D. c #536154",
"F. c #5A6255",
"G. c #5A6354",
"H. c #5D605B",
"J. c #5C635D",
"K. c #62625E",
"L. c #62695E",
"P. c #565661",
"I. c #595660",
"U. c #5C5762",
"Y. c #5A5661",
"T. c #565A61",
"R. c #5C5B62",
"E. c #5E5F6A",
"W. c #615A60",
"Q. c #615C60",
"!. c #625D63",
"~. c #635E69",
"^. c #5E6360",
"/. c #5C6164",
"(. c #5C616A",
"). c #5D6A6A",
"_. c #636264",
"`. c #666A66",
"'. c #61656A",
"]. c #64646B",
"[. c #68646C",
"{. c #636A6A",
"}. c #6A6B6C",
"|. c #6B736C",
" X c #636771",
".X c #666B73",
"XX c #6A6B73",
"oX c #6E7273",
"OX c #61757D",
"+X c #6A727B",
"@X c #72777A",
"#X c #747474",
"$X c #768281",
/* pixels */
"*.@.{ T ] k B %.z.q.k.0.Q  .@.k.h.( _ ^ ( ^ _ '.-.@.*.1.O. ...@.E Q ..*.E F 4 0 L p L J I { } @.#.#.",
"@.{  .Y Y 7 h.z.a.1.1.m.O.! ..' #._ _ _ ( ^ h.>...*.t.O...O.*.] { [ o.*.E T 3 9 e x L R +.@.=.f.<.@.",
"~ E ! P T 7 0.<.<.~ #.h.#.! O.<.` ` #.( %.b $. .{ *.*.0.;.>. .{  .*.&.p.@. .4 Z Z L R E J.0.0.0.h.@.",
"..! .. .Q - h.#.@.....k...@.q.0.<.$.%.F.F.v D *.o.;.;.p.;.;. .{ { ..1.a.~  .8 ] @.@.$.v.h.h.!.!.k.q.",
"q.P n... .- q.<...O.W.| | | ..O.q.=.@.#.' k E @.>.>.&.O.;.*.} } { | @.t.*.O.8 } -._ h.Z.b.m.B.Z.k.t.",
"~ Q #.....O @.~ <.n.Q ......a.a.a.0.@._ / 5 T o.*.Y.;.p.;.&.o. .>.t.o.p.p.P.8 X.0._ #.A.k.q.B.C.p...",
"~ Q ` ..@.X #.#.1.O.X.X.| O.1.R.W.k.U.@.U 7 Y t.p.U.U.a.t.p.&.P.t.U.[ ..t.E.C P.a.#.#.Z.Z.n.q.#... .",
"Q x P ! x $ P P Q | X.X.[ ....@.R.!.!.@.D 6 Y t.p.p...O.U.Y.o.&.U.U.Y [ t.U.C ~.<.<.#.#.q.#.<.....O.",
"- s s : $ t $ - 4 , 4 5 4 5 - - 4 5 w D 9 y e Y F F F C 9 x L D E D e L L C 9 G H e e q x c q q q 5 ",
"F.G.( %.H.b.z.` `.}._._.P * t s q s z s d h t q q : - > 7 p t d x q c 7 0 ..U.W.A.Z.Z.( z |.#X`.!.{.",
"*.O... .! n.q.q.q.n._.oXT = = P b ( _ .._ ) _ ' W U L , Y U c U ( _ h.@.t.!.!.!.K.b.n.( z =.-.E =.@.",
"0.1.0.q.Q q.O.1.....n.oX@.= p U ^ ^ _ <.( ( _ _ W E e 1 Y U U W <.' <.J.].~.!.~.C.b.q.( k L { E @...",
"*.*.0.q.-.=.q.n.q.q.O.[.{ - e ! U ^ _ <.W U @.! ! ! F 1 E E U _ #.B.!._.[.~.~.~.[.C.n.~ i F { E Q @.",
"-.=.=.-.*.E <.0.a.q.q.R.P 5 D T T  ./ .._ _ a.1.....H > T ..( ` n.R.!.R.!.!.!.!.C.W...~ x Z E E @.@.",
"-.=.>.>.@.@.@.0.t.1.O. .D S D T [ Q E T W ! ......Q P , { Q e W q.W.W.R.k.k.1.R.t.p.w.X.0 D +.>.-.;.",
"*.*.+.+.@._ T  .@.E P Y Y w D Y T Q T T O.! Q H ..Q F , e P Q ~ q.k.p.R.Y.U.t.p.>.....H 5 L +.;.@.>.",
"-.-.+.=.{ _ T 0 Y T L @.| 2 w D F H H | | Q Q H Q P F > 1 F | -.k.U.R.p.0.U.#.<.<.| Y G p L +.f. .o.",
"{ E E R L R 7 0 G F F  .@.< S w S G H H H F S S w S 5 5 5 C Y  . .*... . .q...~ P F G ] p C | { D E ",
"; ; : q : = * = 4 5 e x b c D w 5 < 2 w 2 2 < 5 w O < k i 5 9 C 9 S 9 7 q x e e e 8 5 7 ; 6 8 8 p i ",
"`.`.|.J.$./.'.-.0.W.K.L._.{.XX]._.b _.[.].R.@.=.B.W.0.R.R.i.| T  .R./.v.z J.oX{.!._.R.E. X.X(.(.J./ ",
"XXf.f.=.' h. . . .W U P +.{ @.<.O.P }.B.q.<. . .@. .>.;.*.*.;.{ /.i.-.| x XX[.1.a.0.p.1.*.T.>.&.+.] ",
"-.=.{ +.{ >.-.>.Q U W U E { @.@...e K.n.#.#..._ @.@.>.&.p.p.;.@.R.;.>.{ x .Xa.*.0.1.o.>.;.T.>.;.+.R ",
"{ { { @.{ &.>.*.! U ! U @...#.O.P - n...#...~ @._ @.@.&.Y.P.T.f.>.}  .>._ /.*.@.*...O.&.P.T.P.P.} R ",
"{ { E { o.o.>.>._ ^  . .E  .<.1.E < ..n...q..._ =.@.-.>.T.T.T.-.>.>.@.@.I _.*.{  . . .-.;.T.P.o.Y Y ",
" .{ {  .| >.-.@.E ^ { E E { ..@.Q , ..#.~ $.@.=._ @.+.T.T.P.} >.+.>.*.+.P /. .| { { @.*.f.f.&.+.{ K ",
"{ {  . .{ >... ...Q .. .T L Q  .Q > P ..~ ..E E =.+.} &.} { } { { { *.{ U x.o. .|  .*.-.;.>.{ R K Z ",
"E E T Y E @.Q Y F ~ Q P Y { E P P o 0 Y Q P E f.E R E ] } { } { { E { { 0 v.@. . .}  .@.f.} E Y Z 8 ",
"P P 0 Z E ! Q Q | T H S S { w D 9 X 9 F F 9 L T I L 0 ] Y ] ] R R Y Y R 0 E @.{ T Y T { @.+.R Y 0 ; ",
"s i 7 p p D E F D 5 5 w - 9 , 6 = u # 5 5 5 4 6 6 0 4 6 0 J Y K C 0 8 4 - L E Y F D L 0 x x l i u u ",
"R.S.D.F.h.=.q b _ E E E E L 5 x E =...@.@.$.`.{.J.v.J.S./ +.f.(././.f.+.U 0 7 / ' ^ d ( /./././.D.D.",
"i.' @.-.i.O.e #.XX!.[.`.k.-.@.R.R.*. .1.f.h.R.f.f.>.>.7 {.$X{.v.-.i.v.<.@.@.T =.E R v { =.J.T.$.' / ",
"<._  .@.*.| q ! ..1.q.#.<. . .-.@. . .*.{ @.>.} { E } 7 {.).=.+.=.-.=.$.h.k.@.=.@.I ; T >.f.f.+.) _ ",
"<._ 1.p.E Q 5 P ....@.<.P  .<.k.1.O.>.o.{ >.=.>.-.@.E.L {.>.f.-.f.-.$.0.f.%.@.@.f./ X R ;.Y.>.>./ <.",
"=.W t.1.@.! 5 ! Q ! @.-.k.x.x.x.p.p.&.P.>.{ { | { P.E.p (.f.} f.v.x.h.T.=.@.' $.f./ 4 E R.P.Y.+.@.-.",
"@. .0.q.E U - Q ..@. .>.0.=.h.z.*.o.} } } { Y { { P.&.p T.+.&.T.R.h.v.f.+._ ` $.$.E , T P.P.>.>. .&.",
"O.<.1.@.! U o T } | @.=.-.=.h.=.o.} ] } } { | { >.P.] i >.>.>.v.x.0.h.$.=.=.~ $.$.R 6 =.Y.P.&.>.>.@.",
" .{ _ { P v % e {  .' ' @.*.-.@.} } { { { { -.>.>.T.R 6 =.-.i.v.i.f.h.h.=.$._ =.=.T 6 >.P.;.&.>.*.@.",
"P U E x p k . 7 P E ^ B / @.{ { { +.R E R { @.*.>.} J ; +.=.p.a.@.=.=.-.*.@.@.@.@.R ; { { ;.>.{ +.E ",
"k d m s * . . - w 5 k d p e Z 0 J p i i p p L i 7 5 7 y L E Z Y I L Y T Y F L e 0 7 t D A Z J R Y J ",
"d d l ^ V c ; x P F 7 * 7 p x v ^ ^ l ; 4 # = > 6 6 4 @ # 4 ; s x E T Y D 0 D x q 7 u x J p i i 6 p ",
"6 R OX{./.>.{ _.p.@./ R +.R.T. X+X+X>.3 6 6 Z C 0 Z Z 8 J 0 X v XX@X_._.R.[. X.X].(..X).D.M ^ i +.D.",
"4 &.f.>.{ |  .<.{ / ^ L E f.;.>.>.} { > 7 x Y D 0 D Z D L e X +.`.<...Q Q |  .Q T  .E R U v J p K K ",
"3 &.{ { >.+.a.z.W ^ M U { p.{ { >.{ F 8 i i T T D D Y ..U E 1 @.a.O......... .T | ~ Q ! ^ p R p 7 A ",
"4 { E  .@.@.0.<.U U N / =.f.] Y { ] F 1 D p T 0.q._ @...W  .9 P q.1.<...! ...... .! | W E I R Z 4 K ",
"> Y T {  .@.0.0.U U / %.i.p.{ E } } ] 8 L P *._.!.k.*.o.O...D F n.O.W.O.<.<...@.1.@. .E E J { { K Y ",
", R E  .E { 0.q.^ / / @.i.-.>. .] { G 8 T @.U.!.!.q.| O.O...D L O.W.n.O...<... ... .} ] ] / { ] Y A ",
"X { >. .{ @. .| E =.#.q.R.o. .P.} Y Z 8 Y +.} &.t.W.p.O.O...D D O.U.a.O.@.@.@.T { @.>.Y { { { ] ] ] ",
"X Y >.{ { { { { R +.1.R.!.Y >.Y.} A 0 > K Z ] O.*.a.t.q.O...P 9 F [  .1... . .{ { { Y R { R R ] Y Y ",
"& x [ ] { L v 7 ; - 7 b U L E Y D 5 ; $ 0 3 6 p I T Y D C G 9 s D D F Y L R L 8 8 8 1 8 9 8 , 4 , > ",
"7 5 0 I I j a a f d : q t : s n n l n d i B d U x u x v e e z k z P x ; ; 6 # 3 3 3 > # = 4 4 4 7 p "
};
