/* XPM */
static char *_c580ae9c03140b1a5e8e11e232460ba6N7RSQtDGIwqi3El[] = {
/* columns rows colors chars-per-pixel */
"50 50 144 2 ",
"   c #0D171C",
".  c #0E191C",
"X  c #111B1F",
"o  c #0F1B22",
"O  c #141D22",
"+  c #152126",
"@  c #182227",
"#  c #16242A",
"$  c #1A252A",
"%  c #1C292E",
"&  c #1D2C32",
"*  c #1F3034",
"=  c #212B2F",
"-  c #212E32",
";  c #243236",
":  c #283336",
">  c #25343A",
",  c #29363B",
"<  c #27393E",
"1  c #2B3A3E",
"2  c #313B3E",
"3  c #293740",
"4  c #273A40",
"5  c #2D3D42",
"6  c #313E43",
"7  c #2E4145",
"8  c #2F4249",
"9  c #324246",
"0  c #384347",
"q  c #34444A",
"w  c #38464B",
"e  c #36494D",
"r  c #394A4E",
"t  c #374A51",
"y  c #3B4D53",
"u  c #3C4F58",
"i  c #3E5156",
"p  c #3E535A",
"a  c #404F55",
"s  c #415156",
"d  c #405558",
"f  c #415558",
"g  c #415458",
"h  c #425458",
"j  c #425558",
"k  c #435459",
"l  c #425559",
"z  c #41545A",
"x  c #43545A",
"c  c #42555A",
"v  c #42545B",
"b  c #42555B",
"n  c #43555B",
"m  c #43565A",
"M  c #42565B",
"N  c #455459",
"B  c #44555A",
"V  c #45575B",
"C  c #46565B",
"Z  c #42555C",
"A  c #43555D",
"S  c #43565D",
"D  c #43575D",
"F  c #42575E",
"G  c #44565C",
"H  c #44575C",
"J  c #45575D",
"K  c #42545B",
"L  c #44585C",
"P  c #44585D",
"I  c #45585E",
"U  c #44595E",
"Y  c #44585F",
"T  c #46595E",
"R  c #475B5E",
"E  c #45595E",
"W  c #415660",
"Q  c #465861",
"!  c #475A60",
"~  c #465B60",
"^  c #475B61",
"/  c #455962",
"(  c #465A63",
")  c #475C63",
"_  c #475F64",
"`  c #455B63",
"'  c #485A61",
"]  c #4A5A61",
"[  c #495B62",
"{  c #485C63",
"}  c #4A5C63",
"|  c #485C65",
" . c #4A5D64",
".. c #495F64",
"X. c #495E65",
"o. c #465F69",
"O. c #4B5F68",
"+. c #485F6A",
"@. c #496065",
"#. c #4A6067",
"$. c #4A6167",
"%. c #47616A",
"&. c #4B626A",
"*. c #4C6369",
"=. c #4E6269",
"-. c #4E616A",
";. c #4E6468",
":. c #4F646A",
">. c #4E656C",
",. c #4E646D",
"<. c #4E666E",
"1. c #4B636B",
"2. c #4F696F",
"3. c #52656B",
"4. c #50676E",
"5. c #51676F",
"6. c #51656D",
"7. c #516B6F",
"8. c #536A6E",
"9. c #4E6771",
"0. c #4F6971",
"q. c #536C70",
"w. c #546E72",
"e. c #576D74",
"r. c #566E74",
"t. c #526B73",
"y. c #586F76",
"u. c #5B6F76",
"i. c #577077",
"p. c #567076",
"a. c #587075",
"s. c #577179",
"d. c #58717B",
"f. c #5A737E",
"g. c #5A747D",
"h. c #5C7881",
"j. c #5E7A82",
"k. c #5F7C84",
"l. c #607980",
"z. c #617982",
"x. c #627D83",
"c. c #637D85",
"v. c #607D85",
"b. c #66858D",
/* pixels */
"e u N [ 3.c.x.l.= t z Q Q C m d s i i i s 5.b.h.> u m u y r y i R ;.7.w.7.7.R R R x.w.* e i i m s w ",
"w r r y y  .l.y., e v A C s s s i i u z W } h.9.3 r y t y r r i e d d d d d d R R w.w.* i R i y y e ",
"w w w y u s -.3.> e N B i s s u u y u i A ] h.W 5 u i i i r r r d e e d e e d d d 7.7.* r j a y w q ",
"q q w y r w y [ - r C a u y u y y y u i u W s.t 8 z z u r r r y e e e e r e r d d ;.R * w a y r 0 q ",
"w 6 w r w C -.s , a C y r w r y y y s v u O.h.t 7 d i y r e e e e e e e r r d d d _ R * 9 i r 0 w 0 ",
"5 6 w e r a } w 5 s N a y y r r y u s s A / +.t e i i y r e e e 7 e e e r d r d d R R * 7 r e w q 6 ",
"6 w w w r a } w 6 s a a a y r u a s u t y / ,.t e p y e e e 7 e 9 9 7 e e r r r d R d ; 6 y r e 6 6 ",
"5 6 w w w s } 6 q N N a y r a y a a e s A O.} 6 e p y e e e q 7 7 7 7 7 e e e e r R d : 6 r w 0 w 6 ",
"5 6 t e 0 N C : , 9 s s s a y v A y A W p t 4 3 e p u e e e e e 9 e 7 7 e e e d i ~ i > 9 r 0 9 0 6 ",
"6 6 w w 0 N a O ; > ; 9 5 5 5 5 6 y y t 5 4 # 3 e p p u e e e e e e e 9 e e r d i 8 e 3 q r 0 w w q ",
"6 q q q 6 a 6 O $ ; % % % & - = % % & & 3 4 & 3 8 e e 8 i y i e r e q 8 9 e r r , > ; * 9 t r w q w ",
"w e e w 6 a - : w w w w r z 6 O ; w i ( +.9.o.4 7 i i e 7 i i e r r q e e e 2 ; 4 * # & ; w 9 e 0 w ",
"e w 9 6 2 , = 2 s N N N N 3.u.: 6 s u y t u t & 4 4 t p i 8 y i i y t 9 5 ; > > * & O # & < 9 1 5 5 ",
"& % % % = @ : 6 a w 0 a C =.=.: & ; > 3 4 * # + # * & * * * & & & # # + % * ; ; > q u 3 % % ; , , > ",
"$ # O O O O : 6 w a 0 6 6 a a : ; 6 r y y p p o.%.W p p p t t t p ` - O 5 i B ] &.&._ p.@.% # $ $ $ ",
"/ z u r $ = , 6 6 6 2 2 6 a a : t a a s p p ` 0.0.%.2.2.p.i _ 2.p.c.-.< q u y y y m z ~ p.@.@ ; 6 r ",
"s m ] e.a = = : 6 6 6 6 9 w s 3 t a t 6 u t t u +.u u u u o.t u i ,.t.5 e r w w w e w 9 r :.- 1 r y ",
"p m d e.C = a a 2 2 2 2 9 w u , 6 u t w 5 t 5 t W u 5 t 6 u t u u p %.4 7 q 9 q q q y 9 w m ; < w w ",
"q q w B 6 : , 2 2 2 , 2 9 0 w - 6 u w 6 5 5 5 5 u u t 6 6 6 6 u t W +.3 7 w q q 5 9 9 r w s ; 2 w 9 ",
"5 9 6 a : : 2 a 2 2 2 9 0 0 , % 6 u 6 6 5 4 t t u 6 6 t t t t 6 t W W * 5 q 9 5 5 6 9 0 a s ; , 0 6 ",
"1 7 9 y - : : 6 0 6 2 6 6 - = % 6 u 6 u 5 5 4 5 W t t t t t t t t W q 4 5 6 5 5 6 1 5 6 6 q ; 2 0 6 ",
"1 7 7 e = = = - : : = = @ O O = 6 6 6 t t t t t p t t u u u t u t u * > 3 5 5 3 1 5 6 6 6 9 - 2 6 2 ",
"3 5 7 i = @ $ % + + O @ % , ; $ 3 3 6 t t t t u 8 > * * * > * * & 3 # * 3 4 4 4 5 6 9 q w , - 2 0 6 ",
"5 5 q t $ O O O $ ; 9 a Q 6.6.; % & & & > > 3 & % # & # # # # # # # O & & 5 5 4 1 1 , , , - - 6 0 0 ",
"7 q 8 e # 5 t s Q z u y w r ~ 3.O o o & & & & # # # - < q z p p y u 3 # & & # & # # # + X X % 1 0 w ",
"8 q 7 4 & t y r e 6 q 0 6 w w u $ & t %.9.9.%.+.9.5 5 u ( Q z W i ( 0.3 & # # O O o O + ; % + & 9 w ",
"q 3 % + & & , 5 q q q 5 6 5 5 % - 5 t t t t u i t.t 4 q y e e 6 6 q W | ` W W p W 1.u = 9 r * + @ ; ",
"; # + O @ # O & ; > 3 3 3 ; % $ 3 t t t 8 4 3 5 ` 8 < q w q q 6 5 6 p u q q t t y 1.t.& * , % + + # ",
"* ; < 3 q 8 8 < & # O O @ @ @ - 6 u 6 5 5 5 5 6 t 8 > q w 9 5 5 6 6 u e u 6 5 t t u ( 5 t p p i t e ",
"W W u e t y u i W W o.o.s O = 3 6 6 5 5 3 5 5 5 9 q , e w e q 6 5 3 5 t 5 6 6 5 6 t W 3 e q 7 q i  .",
"q 5 5 q w q e e u t t O.6.% - 6 6 3 5 3 > , < 5 w 7 - ; q e q 5 3 3 3 3 4 3 3 3 3 4 5 ; q q 7 7 q i ",
"q 3 < , 3 5 3 5 6 6 6 y | = - 3 6 3 3 3 , , < 7 q ; $ & & $ $ # # # & & # # # # # 3 ; - * < 5 7 7 < ",
"6 , , 5 5 5 , , 5 6 9 w V ; - , 5 , : , , , 3 3 6 : @ - 1 7 < < < 7 7 # + = 7 7 < * ; = $ % $ % % # ",
"5 3 3 , , 1 , 3 5 5 1 9 i ; ; 2 5 , , , , , , , 0 - 1 u d d _ ;.;.7.7.d * 7 p R @.@.;.;.p L U p ` %.",
"6 3 , , , , 5 5 < 1 1 9 9 @ @ , 2 , , 1 3 , , , > % < 9 7 2 2 7 7 d _ * ; 7 9 7 7 9 9 9 e q e y i 2.",
"5 , : , : , , , , 2 2 1 - O X = 6 3 2 < 3 6 3 2 * @ , 9 1 < 2 7 7 7 * < 7 : 1 2 5 7 7 2 1 < < 7 5 r ",
"2 , , , , , , 1 , 1 7 ; % X X @ ; ; - - ; * ; * % + 1 7 1 ; 1 2 1 < * 1 e 9 7 1 2 7 2 7 1 1 2 1 9 y ",
"6 3 5 5 1 , , > - % # # + X X O # # $ O o O # # O $ 1 7 1 1 : 1 : * = 1 9 2 2 : 1 2 9 2 7 1 1 9 9 9 ",
"@ @ $ @ $ + O O X O # & < 8 e e q u / 5 & u p W r % ; 1 1 1 1 1 ; % % * 7 9 2 2 2 9 e e 9 1 9 9 9 < ",
"O O O $   X X - r i p p p y r e 9 t &.o.* 5 t t p & + % % = = % * O @ % * = * = * ; : : % % $ $ % % ",
"8 i _ 2.7 X % r r 7 2 1 1 : : : : , i 1.7 # & & % $ O O O O O O @ O O O O O O X X + + + + X O X O + ",
"8 8 e %.;.+ * 7 6 1 , : ; : : ; : , 1 i 9 ; i p W z t w u 6 6 > ; - $ X % 1 2 9 9 1 ; = $ + X + & 8 ",
"> < < e U + * 1 1 , * - ; ; : 1 ; 1 1 t 7 > 8 q 3 5 > 3 3 3 3 3 7 e _ % = 1 1 2 e 9 e e e ;._ # 4 7 ",
"* > < 7 y + * 1 , ; * - ; ; ; ; , , 1 9 q ; 7 7 < > ; , , , > ; ; > p 1 * : : : : : : 2 4 y 7.* 4 4 ",
"> > < 1 i + * : : : * * * * : : , : ; 7 e - 7 5 , > > : > > ; : , < t < * 1 : : * : : : < 9 R % 4 8 ",
"> ; > 1 e # * < : : = = * : ; : ; : , 5 q + & < < 5 < , > 3 > ; , , 6 - = : = * - * : : 1 7 8 % > 8 ",
"; > < 1 e $ * ; ; : * * * ; ; ; ; ; < , 4   . O # & - ; ; - - - - - % @ % : = : : - * : > 7 < % * 4 ",
"; > > < 7 % * < < ; * * * * ; ; > > < 4 > & 3 3 > + . . O O o O X X X X $ : * - = - ; ; * 8 % X # * ",
"> ; > < 8 $ & > < * > > * * * < > * > * * % ; ; 5 7 O @ > 3 3 ; & $ # + $ ; ; % & - = - > 7 $ O o # ",
"< > < 1 > + & > 4 * * 4 < * * > > < < & % % = % - 5 & @ - , ; ; > < p q + - , 9 > % & > < < 8 8 4 + "
};
