/* XPM */
static char *_be197d21aff4ba2af287c10a1d91afaWmLQ8cOfmXca1v6z[] = {
/* columns rows colors chars-per-pixel */
"50 50 149 2 ",
"   c #13161C",
".  c #1B1A1E",
"X  c #171A21",
"o  c #1C1D24",
"O  c #221F24",
"+  c #1E2026",
"@  c #1F2229",
"#  c #222227",
"$  c #24252B",
"%  c #29272A",
"&  c #25282E",
"*  c #292A2E",
"=  c #272A31",
"-  c #2C2D33",
";  c #2E2E38",
":  c #302F35",
">  c #2E3036",
",  c #2E3139",
"<  c #313236",
"1  c #33343B",
"2  c #38373C",
"3  c #36383D",
"4  c #393A3E",
"5  c #373741",
"6  c #363941",
"7  c #3C3C43",
"8  c #3B3F48",
"9  c #403F44",
"0  c #413F4A",
"q  c #3E4045",
"w  c #3E4249",
"e  c #414246",
"r  c #43444B",
"t  c #48474D",
"y  c #46484E",
"u  c #494A4E",
"i  c #454650",
"p  c #494752",
"a  c #464A51",
"s  c #4B4C53",
"d  c #4C4F58",
"f  c #504F56",
"g  c #504E59",
"h  c #4B5056",
"j  c #4F5055",
"k  c #4D5057",
"l  c #4C5157",
"z  c #4F5257",
"x  c #4E5056",
"c  c #495259",
"v  c #4E5158",
"b  c #4D5258",
"n  c #4F5259",
"m  c #4E5359",
"M  c #4C535B",
"N  c #4F545A",
"B  c #4E575E",
"V  c #4E515A",
"C  c #505155",
"Z  c #505156",
"A  c #515156",
"S  c #505058",
"D  c #515058",
"F  c #515159",
"G  c #525358",
"H  c #50535A",
"J  c #52525A",
"K  c #53525A",
"L  c #53535B",
"P  c #515459",
"I  c #535459",
"U  c #51545B",
"Y  c #50555B",
"T  c #52555A",
"R  c #54555A",
"E  c #52555C",
"W  c #50575D",
"Q  c #53565D",
"!  c #54545C",
"~  c #55555D",
"^  c #56555D",
"/  c #54575C",
"(  c #54575E",
")  c #56565E",
"_  c #57575F",
"`  c #53545B",
"'  c #53585E",
"]  c #55585D",
"[  c #55585F",
"{  c #54595F",
"}  c #56595E",
"|  c #575A5F",
" . c #56585E",
".. c #59585E",
"X. c #595A5E",
"o. c #595A5E",
"O. c #545760",
"+. c #585661",
"@. c #515860",
"#. c #565960",
"$. c #555A60",
"%. c #575A61",
"&. c #565961",
"*. c #585860",
"=. c #595961",
"-. c #585B60",
";. c #5B5B63",
":. c #5A5E61",
">. c #585D63",
",. c #5A5D62",
"<. c #5B5F62",
"1. c #5B5E63",
"2. c #5A5D64",
"3. c #5B5E65",
"4. c #5C5C64",
"5. c #5D5D65",
"6. c #5C5F64",
"7. c #5E5E66",
"8. c #5B5C63",
"9. c #5B5F68",
"0. c #5C6063",
"q. c #5E6265",
"w. c #5D6067",
"e. c #5F6366",
"r. c #5E6066",
"t. c #5F6269",
"y. c #5E6269",
"u. c #606467",
"i. c #616266",
"p. c #616169",
"a. c #60636A",
"s. c #62626A",
"d. c #616568",
"f. c #636468",
"g. c #626669",
"h. c #62656C",
"j. c #64646C",
"k. c #63646B",
"l. c #65696C",
"z. c #67686C",
"x. c #676B6E",
"c. c #66696E",
"v. c #696A6F",
"b. c #646770",
"n. c #676A71",
"m. c #686B72",
"M. c #696C74",
"N. c #6F7075",
"B. c #707176",
/* pixels */
"x.g.g.l.g.3 7 u 4 4 e 9 7 e 2 # f 7.7.^ ^ *.*.*.*.L ^ ^ ^ 8 t 4.T -.$.' ' 3 w a w 6 B @.0.c | ' B B ",
"u.0.0.q.<.< 4 r 4 7 e e 9 t e % 9 G ^ G L A L L ^ d g s d < 7 Q h b b h c , q y w , y c N a c b N c ",
"q.<.<.<.0.< 4 u e 9 e 9 9 e e : 1 s ^ K f f d A L s d t s ; 7 L a d a h N 3 w c h , w a h r y w a w ",
"<.0.<.<.:.3 q u t e e 7 2 9 2 % 2 s K f L L s j s t s p d 1 8 L s h h v ' 3 w a a , w c c c a d d a ",
"{ -.0.| | 3 q r e r t 9 2 7 2 O 7 t u u j C j u u e s u f 1 4 G v v v v N ; 1 w 6 @ , q 6 w w a w w ",
"/ 0.0.| } 3 q q e 0 t 7 2 9 7 * 8 t r e u C u r u u j s s 1 4 G v h d T B , 6 s h q 6 q = , , 6 6 1 ",
"T 0.0.] | 3 4 4 9 9 0 2 1 9 9 : 9 t r e u G s u j r u t u < 9 G k s d v L 1 i 3.x.y.y.B , q 6 7 6 6 ",
"s { :.P b < < < 9 9 9 < - 1 2 - 2 e r q r u u u r e e 9 r - 4 I Q Q v v b , t f.0.0.y.$., 6 , , , > ",
"= y y w w 8 8 < # : 5 7 7 < 1 2 u < % 4 4 3 3 < % j t e e e 4 I f f g f ^ 8 r ;.4.4.5.^ 7 1 2 5 < 1 ",
"3 { { Q { Q ^ s 5 d ^ g g f g ..C e 4 e e e e < e l.f.f.f.X.9 C f g ^ d ^ 2 7 ^ j.f.f.^ 7 < 1 2 2 < ",
", h k k L L K p 5 f ..f t p f g C e 4 4 e e u 4 2 X.X.X.X.u % < 0 8 0 7 0 $ ; d d p s 0 ; ; ; ; < ; ",
", a s s g d d 0 5 f ^ s p f f g u < < 3 4 u u 9 q u.0.0.0.C < 4 0 7 7 1 8 % 5 ;.^ L +.^ d g L f G L ",
"1 d d M @.M g i : 0 p 0 p +.g p u 3 < e e 9 9 q 2 X.X.X.X.C < 9 r 0 0 7 r : 7 5.L s g K s s d s s u ",
", r w a d d d 0 7 d g p +.+.g p u < < 4 4 4 < 4 2 f.f.z.g.R 4 e 7 9 0 9 r - ; s L d d f s s g s s u ",
"6 a i a d a d i ; 7 0 0 0 0 5 7 e < % < < < 2 2 < X.X.X.:.C * 4 7 7 7 5 r - ; p t e 0 0 7 w d s t u ",
"8 a i i d i 0 8 ; 5 7 0 0 p 0 g C e 4 4 4 4 e 4 < I u C I u % 4 1 * = $ 5 = : d r 7 4 1 ; 1 w w s u ",
"3 c h a c w w y - d s.^ ^ ..4...:.<.X.4 0 <.f.X.i.X.X.<.f.q.5.5.I : C q C x.0.g.g.x.n.h.b.M.M.b.z.0.",
"& a h r r a b w ; s +.K f f C f C C C < ; s L K ^ K L L ^ K K R C : C e 9 g.i.i.<.5.y.3.y.y.9.@.0.I ",
"@ w h a y c ' r < s +.^ K f f f u C C < ; e p f L L L L d A L s u < C C 4 0.:.R 5.3.y.g.y.w.9.w.s...",
", 3 q c a w a q = y K f p t t t u P ] 4 2 p d f s L L g f L K A I 4 I v.y :.g.0.w.*.3.y.w.9.9.y.0.I ",
"q 6 q c k j j 7 $ r / s f A f f u P d : < g L d p s s p t u f G C < e x.r s 0.e.h.w.3.t.y.9.9.b.0...",
"q w w w h ' / 3 # q j t t f f t z P s , 1 L ^ L K f d d d d ^ ;.X.4 e l.s h l.x.w.3.3.<.O.B B -.5...",
"& 3 , > 3 q 7 * o * < 1 2 : < 2 > * & o $ ; : < < - ; 7 7 < ; < 4 * > y q > u 3 r a s a a i i i u 9 ",
"* , & , 4 - * < * & * < : O % 2 y 7 t s d s 0 s 5 5 t p.p.s 1 : q 4 q u C < w + w d N v d M M d f 4 ",
"> 3 q 3 q e e e t t 9 9 e 2 9 v.j.n.n.j.p.p.f.s.K 0 s.t ^ p.O s I C C C I C P * a ;.Q v d d M d y 2 ",
"* q e 3 q 4 4 q 2 9 9 9 9 : 9 z.;.^ K +.+.K K ;.A 0 ^ d K ^ ; v u u I I I u y . a ;.M s d a M d d 1 ",
"* 3 q 4 4 4 q e < 9 9 9 9 : 2 X.z.7.*.7.p.;.;.4.K 7 t f d t 5 L :.I C r e 9 C 3 a #.L d d i M d a 6 ",
"< q q < 3 3 3 q 2 2 2 9 9 % : f +.4.4.;.*.;.4.*.7.8 s ^ R s 5 A u r t e e 9 C > w #.O.O.B a d a s 7 ",
"4 e e q e e < 4 9 e 9 9 9 < 2 C r K ;.K K 4.p.*.*.; t f f s $ 8 u u u r j u N > , s B Q O.d d a c 7 ",
"% < 4 e e q < < % 9 9 2 < O % f p ;.f.^ g +.4.4.*.< g R ;.^ * r R C C C R T | , $ w y d O.O.O.d c 8 ",
"O % < < < % % < % % % % % . O 7 8 0 r 0 7 7 e p 8 : 4 0 p 5 o < q e C R X.s y o , w e a L M O.d B 8 ",
"u X.C u 4 * < u t e 9 2 t 9 1 e ; O O = - = ; r r s 0 s g 1 - r u e u e r q a - w s r r d M O.M L 8 ",
"g.X.<.N.7 7 K s f t t t s s f ^ w @ w w a , r Q 3.-.y.3.b.>.6 = d ^ A A A R G 1 4 I u j r e i.{ d 0 ",
":.<.0.l.; 1 ^ f r t t s s s s f a X , 8 w @ 6 v y.w.y.3.y.>.1 @ ; < < 7 7 4 1 . $ 2 < 3 3 3 e 4 0 1 ",
"X.l.<.q.5 - f r 0 p d f s p s t a @ 6 w a 1 d 3.<.#.#.v $.M - + * < > r A C s 7 q r u 2 * - * $ < = ",
"R l.C :.r * 0 5 r s f d s d t r 7 @ 6 6 7 1 a B y.3.3.T $.$.6 - 7 4 3 s i.i.f.7.i.u.B.j 7 u r X.K p ",
"X.f.*.f.K 1 t p L L g g g g K f y = 7 w 6 , y 3.;.3.w.B Q Q 6 = r q < t 0.X.^ <.X.I 0.3 * e 7 s g r ",
"I X.i.^ r = 7 d p r e r r r r r y X = 6 , = 7 y.#.w.h.#.#.v 6 - < < $ e i.<.X.5.v.X.i.q 4 j 7 q g 0 ",
"< 1 f 5 - = - - 5 5 5 9 2 * = < ;   o - @ = > 7 1 w w , 1 7 - = > < # 3 X.<.X.i.R R X.7 2 j r e r 7 ",
"# # d 4 0 g r - *.^ 4.j.g 7 5 p w r N a w B a , 7 i a 6 7 v b $.j j < 3 R R A X.X.z.l.e < 4 q e 7 ; ",
"1 < ^ g ^ K f 1 d ^ 4.^ 5.- t t y h r a h h d , w #.v #.{ a v a j X.u $ 3 3 > * 4 1 < > * - > # = = ",
"1 < L s L +.g 1 p ;.f.K d $ r g y d a d h s v 6 6 s a v T a a w j R r * e r 3 % 4 1 < 4 q e 4 # 5 2 ",
"5 1 d 0 r d 0 # L *.^ g K ; p d w r r d r y s 6 6 s s k { T d w u j q * s z q % s t u k G R r $ ; ; ",
"1 ; e r t g d 1 L *.X.*.5.5 p s a y d v w w d 3 1 y s a k k a w r e 4 * j C r % e u u t e e 3 # 1 ; ",
"7 ; i d t s r 8 t 4.4.7.L - 5 t a a s b w w a 6 , w w w w r q w j u r 3 C I j 3 r r j u e r q * 1 1 ",
"1 - 1 7 ; 5 1 1 0 d 0 i 8 O ; < 6 6 ; , 6 - , @ = = , ; , , = , > % * + - > - . r r r r e u q # 1 2 ",
"O X O = $ r p e p 0 & 1 e 1 1 ; , , X + , - = = +   + + = & X > e q e 3 q 4 q % < < < * $ > * . # $ ",
"0 7 7 ; $ #.{ p r r - r d e p t a c - = w w 6 w 6 & , 6 w q > r R C R u z j j 3 4 e r 3 * 7 y e s t ",
"2 7 7 = ; w i w d d 5 5 8 8 0 0 e p $ $ e 4 7 q r e e 7 4 e $ 7 G s L t s s d 2 0 ;.^ K *.;.7.5.i.i.",
"2 5 7 & = w w c d B 5 5 p 8 0 7 e t $ $ q 4 7 q e q 7 4 4 e # 7 A s L y s s d 2 5 ;.;.^ 5.;.5.*.{ ^ "
};
