/* XPM */
static char *d5e7cda7d9444a33eacdb0a2bae2552fKPt7GZW0lJi0Zutj[] = {
/* columns rows colors chars-per-pixel */
"50 50 253 2 ",
"   c #561D07",
".  c #6F1F0C",
"X  c #5C2716",
"o  c #682A0C",
"O  c #762706",
"+  c #6C350A",
"@  c #74330B",
"#  c #7C360B",
"$  c #662D12",
"%  c #6A2E14",
"&  c #682A19",
"*  c #732C12",
"=  c #772C16",
"-  c #6B3214",
";  c #6E331B",
":  c #673517",
">  c #753412",
",  c #7C3413",
"<  c #7B3419",
"1  c #773918",
"2  c #732B20",
"3  c #6E3A29",
"4  c #7A3827",
"5  c #662D22",
"6  c #79431B",
"7  c #794737",
"8  c #78492A",
"9  c #774F44",
"0  c #823108",
"q  c #842B16",
"w  c #952D16",
"e  c #8A3D1E",
"r  c #853617",
"t  c #98371A",
"y  c #8C290F",
"u  c #A53A1B",
"i  c #873926",
"p  c #9C3B22",
"a  c #963A27",
"s  c #843A31",
"d  c #A63C26",
"f  c #B13E2B",
"g  c #884019",
"h  c #B3401E",
"j  c #8C4626",
"k  c #9D432B",
"l  c #964526",
"z  c #874938",
"x  c #9A4634",
"c  c #88513B",
"v  c #915430",
"b  c #A34223",
"n  c #AB4426",
"m  c #A2422C",
"M  c #AA452A",
"N  c #AD4A2C",
"B  c #A84C27",
"V  c #B34B2B",
"C  c #B74829",
"Z  c #AC522C",
"A  c #B8542C",
"S  c #A44531",
"D  c #AB4633",
"F  c #AB4B34",
"G  c #AC4B37",
"H  c #BC4D33",
"J  c #B64C37",
"K  c #A95535",
"L  c #B45333",
"P  c #BB5533",
"I  c #B5553B",
"U  c #BE553A",
"Y  c #BC5C3B",
"T  c #B85B37",
"R  c #BA633A",
"E  c #936035",
"W  c #C3562B",
"Q  c #C34D32",
"!  c #C35334",
"~  c #C45B35",
"^  c #C3563B",
"/  c #CB553D",
"(  c #C45B3B",
")  c #C95C3D",
"_  c #CC5634",
"`  c #CC5632",
"'  c #C5643C",
"]  c #CC643D",
"[  c #CA6839",
"{  c #D4683E",
"}  c #D6763E",
"|  c #E66C3B",
" . c #875748",
".. c #935146",
"X. c #895D54",
"o. c #945F57",
"O. c #B95744",
"+. c #AD5343",
"@. c #8A6556",
"#. c #966759",
"$. c #987159",
"%. c #8D644E",
"&. c #BD6547",
"*. c #A26852",
"=. c #B26F57",
"-. c #9A6C63",
";. c #96766C",
":. c #9C7B77",
">. c #8A7166",
",. c #A97764",
"<. c #BA7869",
"1. c #A77E77",
"2. c #A26761",
"3. c #CB5C42",
"4. c #C75843",
"5. c #D05847",
"6. c #C56344",
"7. c #CB6443",
"8. c #C26A43",
"9. c #CD6B44",
"0. c #CD644C",
"q. c #CD6B4B",
"w. c #C4664B",
"e. c #D36443",
"r. c #DA6544",
"t. c #D46B45",
"y. c #DA6B45",
"u. c #D46C4B",
"i. c #DA6D4C",
"p. c #D7644B",
"a. c #CE734D",
"s. c #CA7349",
"d. c #D37244",
"f. c #D4734C",
"g. c #DB734D",
"h. c #D47A4D",
"j. c #DB7A4D",
"k. c #DB7145",
"l. c #CC6C51",
"z. c #C76854",
"x. c #D46D52",
"c. c #DB6E53",
"v. c #DE6F5C",
"b. c #CD7353",
"n. c #CE7A5C",
"m. c #C97758",
"M. c #D57453",
"N. c #DB7454",
"B. c #D57A54",
"V. c #DB7A54",
"C. c #D3755A",
"Z. c #DD765A",
"A. c #D57B5B",
"S. c #DC7B5A",
"D. c #E16946",
"F. c #E2734D",
"G. c #E57548",
"H. c #E27454",
"J. c #E27A55",
"K. c #E47659",
"L. c #E27C5C",
"P. c #EA7957",
"I. c #E56C51",
"U. c #C77B65",
"Y. c #DD7C61",
"T. c #D67A62",
"R. c #E27E62",
"E. c #E67962",
"W. c #978376",
"Q. c #B88469",
"!. c #A8867A",
"~. c #B98975",
"^. c #A1816D",
"/. c #DD825C",
"(. c #D98458",
"). c #CF8059",
"_. c #E2825D",
"`. c #E58359",
"'. c #C98466",
"]. c #DC8363",
"[. c #DD8B65",
"{. c #D88767",
"}. c #D88B75",
"|. c #C7957C",
" X c #DB957A",
".X c #D6916E",
"XX c #E38462",
"oX c #E48B65",
"OX c #EA8C6C",
"+X c #E58868",
"@X c #E6916C",
"#X c #E98D75",
"$X c #E69676",
"%X c #F79879",
"&X c #F08D70",
"*X c #EEA07C",
"=X c #A98A85",
"-X c #B78B88",
";X c #AD9588",
":X c #B7978B",
">X c #B69A95",
",X c #A89993",
"<X c #B8A49A",
"1X c #B7A48C",
"2X c #BB9CA2",
"3X c #B8A9A2",
"4X c #B6B1A3",
"5X c #CA9786",
"6X c #DA9A87",
"7X c #D49C94",
"8X c #CA918F",
"9X c #E39B84",
"0X c #E19D90",
"qX c #D8A28D",
"wX c #C6A89A",
"eX c #D7A897",
"rX c #C9AA95",
"tX c #E5A48A",
"yX c #E3AB99",
"uX c #E5B19C",
"iX c #C49DA2",
"pX c #C6A8A4",
"aX c #D4ABA3",
"sX c #C8B5AA",
"dX c #D7B7A8",
"fX c #C8B9B4",
"gX c #D6BAB6",
"hX c #D5ACBC",
"jX c #E5BAA7",
"kX c #ECBFB3",
"lX c #C7C5BA",
"zX c #D5CABD",
"xX c #D6C3BA",
"cX c #E6C7B7",
"vX c #EAC7B1",
"bX c #E1BDC8",
"nX c #D7CAC6",
"mX c #DBD8CB",
"MX c #D9D8D7",
"NX c #C7C9C9",
"BX c #E8CDC4",
"VX c #E4D4CD",
"CX c #E7DAD6",
"ZX c #F1D9D7",
"AX c #DCE8D8",
"SX c #DDE2CC",
"DX c #EDE3DB",
"FX c #DDDAE8",
"GX c #D9E7F3",
"HX c #E5E6E6",
"JX c #EAFBFB",
"KX c #F8FCFA",
"LX c #F1EFE8",
/* pixels */
"zXsXsX>X<X3XlXHXCXNX<X<X,XfXsX1.# O pXFXnXxXgXFXNXVXgX<XsXgXfXMXHXMXpXpXxX<X!.:XnX%.O v =X-X1XlXmXVX",
"tX6X9X6X}.|.tX0X X9X$X$X X9X$X[.t W.DXm.j.B.C.dX9X'.).[.$X@XU.'.$X5XnXmXpX6XtX6XFXzXo '.6X6X X#X}.6X",
"i.i.i.g.i.N.E.u.OXM.i.g.f.N.Z.t.r $..Xy.G.(.V.E.oXg.V.B.t.g.V.g.f.[ t.t.i.i.k.} <.$.# f.N.e.} i.V.f.",
"A.V.B.a.B.B.V.V.OX].M.j.V.Z.f.b.l # 6.w.M.].b.P.M.N.R.+XN.Z.Z.H.C.R.Z.f.V.).M.E.' g @ &.0.c.N. XOXV.",
"M.N.S.M.S.S.Z.N.M.B.V.j.N.M.u.l.x E n.4.b.t.B.Z.V.f.M.L.A.V.N.H.V.N.h.N.H.N.f.a.Y i * I 6.a.d.b.].C.",
"M.S.%XXXf.B.S.N.S.N.N.Z.i.i.q.L r c 4.` ' M.f.9.k.(.B.N.B.B.j.j.N.J.j.V.].C.9.y.C x v V Q P k.i.u.i.",
"u.9.u.u.u.J._.t.u.S.C.M.N.e.^ L B q Z A P 5.u.d.i.t.q.i.g.M.N.u.h.M.l.9.9.t.u.U n *.7 N 4.U 4.u.9.t.",
"9.f.u.u.i.9.N.M.y.u.q.u.' W ~ V < 6 T 4._ A ^ 3.7.0.V.N.e.q.].u.T.N.r.y.u.' ( ! B r # B U Y Q P / 7.",
"N H A T 5.C n H C M n n M J f w O O t C Q C C C f C W &.5.~ ~ 0.) ) P H V L L V =.4 # l J 4.Q P A P ",
"c ..4 * s ,.5X-X1.#. .z  .-.#.:.mXsX^.xXcX1.1.|.~.v j , q = 1 % 2 ; 4 4 2 2 s 4  .$ $ $ & & = > = i ",
"KXKXsXO SXJXJXKXKXVXgXaXeXcXsXnXnXhXwXnXKXKXHXnXGXGXLXsXo ;XwX<.,.,.|.~.~.Q.5X|.<.=.'.Q.rX<X1X:XNXFX",
"6XuX<XW.JX|.7XsXY.A._.L.`.V.S.S.].{._.oX{.U.n.H.I.{.5X,.4 dX.XP./.&X%XXX+XJ.S.Z.`.V.P.XX%X@X+XXX5X6X",
"Y.k.m %.hX[.r.f.N.XX/.@X]./.J.`.J.V.V.L.Z.f.oXA.d.Z.C.N @ I T.b.B.S.S.f.N.V.g.N.N.V.B.M.x.x.Z.`.k.k.",
"J.x.+.+ N d.d.).h.V.B.S.M.B.f.B.h.S.T.].N.J.V.n.Y.K.x.K @ L [ a.XXA.B.S.B.V.B.A.N.L.B.M.V.V.h.(.S.M.",
"t.w.l 1 +.) [ [.N.M.K.Z.Z.Z.Z.Y.h.S.M.S.S.F.H.V.u.M.9.B # l 4.z.M.f.f.V.J.N.S.S.OXl.B.+XS.N.Z.M.B.h.",
"} z.d > B <.4.0.u.u.9.j.d.B.A.+XK.N.V.N.M.B.M.y.d.y.O.I 8 M ) A ) N.u.u.J.M.S.S.h.N.L.S.M.f.B.c.u.i.",
"Y ^ k < l q.P ! 5.q.i.y.t.y.D.s.9.h.y.t.u.x.S.x.t.8.&.k , l ~ A ^ 7.e.u.$X{.l.c.x.f.r.p.9.u.u.t.t.9.",
"! P j = l l.w.}.q.8.' { q.l.u.t.v.c.p.c.u.p.s.] / 3.^ p = j U / P P ~ ' 6.9.e.7.[ { f.y.B.A.M.0./ / ",
"d w O O 0 V C d b h u u n N V W T &.P A a p w u p m p q > j L D D M D U f J I L +.J Z V d d u t p p ",
"9 @.>.;XmX<X:XnX:X-X2XiX#...7 . & & . X 7 9 9 @.$. .z 4 3 3 4 z c s = : $ 8 6 $ & ; * c =X>X;X1.@.@.",
"yXjX7XaXeX7X8XxXGXVXvXdXVXLXdX*.1 o z *.eXaXgXBXDXDXCXVXnX4XNXDXKXCXfX4X4XfXwX#.B o @.KXFXKXKXxXyXeX",
"J.j.g.t.J.} G.j.k.F.H.V.a.b./.oXv g ).oX$XoX@X`.OX@X@X.XOX#X.X.X}.$XtX X9X#X%X&X/.# <XzXz./.B.q.N.H.",
"B.F.H.V.B.b.n.C.B.(.B.b.$XOXC.M.l r j.M.B.Z.V.N.V.J.V.A.K.N.J.E.I.g.h.g.K.p.i.(.&.i c m.f.y.H.L.j.V.",
"n.Z.T.B.M.P.V.N.R.].E.V.[.{.Z.' j r 6.8.B.S.B.S.h.F.g.M.Z.[.(.f.A.B.J.H.M.S.`.s.0.j O [ Q.x.N.B.N.V.",
"B.M.Z.$X{.XXZ.n.B.J.Z.V.i.t.N.P i v 4.m.7.i.d./.(.A.H.H.T.T.XXN.V.M.N.V.M.B.N.9.O.g > T 7.7.a.f.N.V.",
"N.K.i.].[./.N.Z.V.M.M.9.N.i.q.F r , J $XT.C.Z.{.p.{.[.j.Y.n.h.j.j.Z.L.S.M.N.Z.b.0.j + L / ( 9.i.u.f.",
"[ y.e.u.f.i.t.t.t.u.u.s.t.) Y b t > J R 4.R u.p.I.A.a.{ k.M.t.N.i.x.N.i.i.f.e.W G i 1 L ! H ( e.t.t.",
"r.{ f.u.p.r.j.d.r.i.7.3.7.! ) u q 1 J L ! ( U R ' i.t.f.q.i.e.c.f.f.M.u.4.) ( / D r * F 0.^ ! ) ( ) ",
"f F K K J G G K d t a }.a a S = * 1 p P ! V P V M C f =.&.V W C C h u u b u b k y r e r u d V n M n ",
"X.7 , ,   & 5 X o X X 5 X 3 3 & - : $ * 4 4 2 i c *. ...i 4 ;.1.:.-XpXaX:X1.-.#.@.@.;.!.-X#. .7 7 c ",
"cXqXj - :XqX<.,.<.Q.~.Q.Q.|.|.5X<.U.Q.5X1XdX>XfXGXKXKXzX: v jX5XqXjXkXvXcXBXBXcXgXgXmXDXLXZXBXxXxXxX",
"B.L.T : eX}.V.`.J.XXXX#XS.L.L.L.[./._._./.J.XXY.5X0X8XwX6 R OX`._._.L._.XXL.V.`.`.J.J./.S.]./.`.XX_.",
"J.N.K - Z V.M.A.B.g.B.V.g.j.B.N.f.V.h.M.M.B.f.N.H./.c.n @ R Z.b.[.+XA.S.XX+X[.@XoX[.[.].oXoXY.OX_.M.",
"f.f.K > K ' 8.@XZ.Z.Z.H.Z.N.Z.N.H.Z.c.J.R.XXS.N.V.a.a.I + K 7.8.M.R.N.XXL.M.A.OXN.XXY.S.S.N.Y.Y.(.f.",
"y.3.x % K 4.7.x.M.M.h.B.V.B.B.XXB.V./._.V.N.N.S.N.u.0.D < &.0.6.q.Y.M.]._.B.B.M.A.B.N.XX_.h.B.h.a.u.",
"d.P l , b P ( ] t.N.g.u.f.V.V.V.A.B.B.S.N.N.u.t.G.' P l 1 K 3.T 7.N.f.u.9.t.V.H.Z.N.k.L.B.N.j.t.y.y.",
"T H t r b ( V P 0.u.u.u.i.q.q.f.u.i.x.u.q.x.A.A.] ! U k > a 4.U ! ' 7.9.q.Z.u.u.f.q.i.i.7.u.u.y.u.9.",
"^ U e @ j l.7./ ( ) ) ] y.e.t.t.y.y.y.e.t.t.t.( Y 7.P i < l w.0./ P ^ 4.7.i.u.u.u.7.{ y.u.R.i.r.4.^ ",
"w w . o # p d d p d b u u f M n M N P J M u p p t u y O O O t p b b n b t t w e p M n M a s i w t y ",
",X3X-.>.1.=X<X4X~.@.X.2.@.7  .$.4 & X X 7 9 #.!.;.;.-X:X>.>X<X>.X.9 9  .#.:.!.!.-.3   #.>X3X=X;X<X=X",
"eXqXqXkXyX5XeXvXnXHXJXLXBXaXfXKXsXo K '.dXcXgXeXjXcXcXeX6XqXeXkXkXqXqXtXjXcXLXAXZXSXo.AX7X6XtX XVXBX",
"H.j.t.i.y.J.y.f.N.U.U.A.i.N.B.}.;X4 A._.L.c.f.| V.q.c.N.k.F.g.c.J.j.J.H.H.N.Z.Y.&.<X4X6XN.M.a.H.M.M.",
"N.Z.L.OXM.S.C.Z.g.g.N.J.V.J.A.l.v r k.s.h.S.n.OXu.OX{.N.J.Z.M.Y.J.h.B.B.M.L.Z.K.q.c $.9.y.g.M.F.C.V.",
"B.f.B.A.{.*XB.S.V.J.N.N.f.l.Y.l.E > 6.w.p.R.Y.Y.N.@X[.M.c.V.B.B.H.H.N.B.A._.V.h.=.t @ ~ &.q.B.S.V.V.",
"j.F.H.S.A.B.V.k.B.B.B.V./.M.u.T a , 0.q.] t.h.f.(.N.i.B.(.V.f.V.f.+X/.M.S.f.9.t.4.z < P ' e.c.i.V.M.",
"u.f.M.M.S.M.M.L.Z.N.u.x.N.r.) H e 6 T T ( t.s.i.C.c.F.Z.M.Z.c.J.B.S.N.p.c.i.c.7.C > 4 T A V p.t.t.t.",
"e.g.f.i.i.9.f.6.[ u.u.u.t.~ ' V i r J / L U 7.e.e.] s.d.q.f.V.' f.9.9.M.9.9.7.T C g # M s.z.U 8.] 9.",
") ] ) t.y.p.e.L.j.i.p.3.^ 6.6.G # r n _ b.w.T _ ( r.{ q.#Xu.t.g.y.y.i.N.] ) H / d r ; d m.m.Q W ^ / ",
"k S k m K k S +.+.a a x a x x i = , i m F F D F M D D D O.G S G D S x m k k d x i , , i a D S S m m ",
"$ ; - $ - $ $ : $ $ & % o & % % - - - > * % * - ; ; - $ ; - $ - % % $ % % % % % 5 - + - % % % ; - - "
};
