/* XPM */
static char *b81131507e9d4f2ed0ccb22b69cb5fbaYOonyFyUlSjIZB7q[] = {
/* columns rows colors chars-per-pixel */
"50 50 256 2 ",
"   c #393923",
".  c #563715",
"X  c #502D1B",
"o  c #693613",
"O  c #52342A",
"+  c #7A3937",
"@  c #6D332C",
"#  c #551A16",
"$  c #355133",
"%  c #565018",
"&  c #6D4B15",
"*  c #6F6F1C",
"=  c #595636",
"-  c #514F31",
";  c #654729",
":  c #784925",
">  c #77552B",
",  c #674938",
"<  c #774837",
"1  c #785639",
"2  c #6A5A32",
"3  c #517131",
"4  c #756729",
"5  c #7A643B",
"6  c #6D7131",
"7  c #576B0E",
"8  c #693847",
"9  c #753A46",
"0  c #75334D",
"q  c #6F3961",
"w  c #5B2F4C",
"e  c #38534C",
"r  c #366D70",
"t  c #395E65",
"y  c #595947",
"u  c #5B5B58",
"i  c #4F4F4C",
"p  c #774A47",
"a  c #685748",
"s  c #765848",
"d  c #6A4655",
"f  c #7A4857",
"g  c #685756",
"h  c #775857",
"j  c #684C45",
"k  c #547053",
"l  c #796748",
"z  c #797A49",
"x  c #696858",
"c  c #766754",
"v  c #6A7659",
"b  c #777757",
"n  c #6A6E47",
"m  c #4D556C",
"M  c #7A4767",
"N  c #6A5868",
"B  c #775767",
"V  c #735671",
"C  c #516E6C",
"Z  c #6A6967",
"A  c #796867",
"S  c #777768",
"D  c #6F7373",
"F  c #88392B",
"G  c #883A39",
"H  c #912E32",
"J  c #AC393A",
"K  c #895915",
"L  c #8F6E1E",
"P  c #864639",
"I  c #964638",
"U  c #845938",
"Y  c #8E532F",
"T  c #AD4D34",
"R  c #886938",
"E  c #877638",
"W  c #977936",
"Q  c #916E2E",
"!  c #AB7135",
"~  c #A75C19",
"^  c #C44E38",
"/  c #D77035",
"(  c #873758",
")  c #983856",
"_  c #8E3747",
"`  c #AD384E",
"'  c #8E3A6D",
"]  c #AA3A6D",
"[  c #C83659",
"{  c #884847",
"}  c #865647",
"|  c #97594B",
" . c #864955",
".. c #984959",
"X. c #865755",
"o. c #975957",
"O. c #964847",
"+. c #A65656",
"@. c #AE4E4E",
"#. c #886A48",
"$. c #996746",
"%. c #887946",
"&. c #977848",
"*. c #876957",
"=. c #9A6858",
"-. c #877758",
";. c #977959",
":. c #A67746",
">. c #A66755",
",. c #AC7153",
"<. c #994767",
"1. c #875968",
"2. c #9A4577",
"3. c #8E516B",
"4. c #A55867",
"5. c #A64876",
"6. c #A95777",
"7. c #B65978",
"8. c #B1486C",
"9. c #896968",
"0. c #976668",
"q. c #887965",
"w. c #977867",
"e. c #976778",
"r. c #887B79",
"t. c #977878",
"y. c #876872",
"u. c #A66965",
"i. c #B4686A",
"p. c #B57A67",
"a. c #A56877",
"s. c #B76978",
"d. c #A67977",
"f. c #B37876",
"g. c #A97A68",
"h. c #C35154",
"j. c #CF6D57",
"k. c #CB506B",
"l. c #D67767",
"z. c #CC6F71",
"x. c #E36E69",
"c. c #738639",
"v. c #758C34",
"b. c #638D2E",
"n. c #358376",
"m. c #598453",
"M. c #688559",
"N. c #758C50",
"B. c #77A44B",
"V. c #538C73",
"C. c #678669",
"Z. c #7A8567",
"A. c #7B8674",
"S. c #719373",
"D. c #6EA873",
"F. c #8D8C32",
"G. c #AC8D37",
"H. c #AAAF35",
"J. c #97A529",
"K. c #978747",
"L. c #868759",
"P. c #978859",
"I. c #999859",
"U. c #8C934C",
"Y. c #BA8646",
"T. c #B79948",
"R. c #A78659",
"E. c #A49854",
"W. c #B18C52",
"Q. c #92AB51",
"!. c #AAA65B",
"~. c #B9A85C",
"^. c #AFB54D",
"/. c #89896A",
"(. c #968666",
"). c #879469",
"_. c #898977",
"`. c #9A8A7A",
"'. c #999579",
"]. c #91986C",
"[. c #A68969",
"{. c #B48665",
"}. c #A89768",
"|. c #A78978",
" X c #A99779",
".X c #B59778",
"XX c #B78F71",
"oX c #8DAA70",
"OX c #B0AD6E",
"+X c #C89153",
"@X c #CBAF53",
"#X c #CA9171",
"$X c #E49775",
"%X c #CBAE70",
"&X c #E9AD73",
"*X c #E5A750",
"=X c #A9C554",
"-X c #AFCC6E",
";X c #99C571",
":X c #D7CC72",
">X c #D88A3F",
",X c #7D3E82",
"<X c #747691",
"1X c #506C89",
"2X c #91538C",
"3X c #B15489",
"4X c #93718D",
"5X c #A97584",
"6X c #B26E8E",
"7X c #B270A4",
"8X c #CC7290",
"9X c #CF7EAC",
"0X c #ED74A3",
"qX c #D7618E",
"wX c #33838A",
"eX c #549086",
"rX c #788987",
"tX c #71918E",
"yX c #75A692",
"uX c #79ACAC",
"iX c #6493A7",
"pX c #968784",
"aX c #979389",
"sX c #978695",
"dX c #999694",
"fX c #87908E",
"gX c #A88985",
"hX c #B88587",
"jX c #AA9786",
"kX c #AA8899",
"lX c #A69A97",
"zX c #B49597",
"xX c #B5928E",
"cX c #8CAC92",
"vX c #BBA989",
"bX c #ACAE8D",
"nX c #9594A2",
"mX c #AC8FA7",
"MX c #95AFAD",
"NX c #B0B0A8",
"BX c #D5959B",
"VX c #CD8F8C",
"CX c #E1978F",
"ZX c #D2AD93",
"AX c #E8A888",
"SX c #CF8CA9",
"DX c #EC92AA",
"FX c #CBAFAA",
"GX c #ECA7A5",
"HX c #A2C3A8",
"JX c #DFC189",
"KX c #94B0C8",
"LX c #A6BDC9",
"PX c #BE90C1",
"IX c #E39EC3",
"UX c #A8D2C8",
/* pixels */
"S v aXS b S D pXy.6.qX0X0X8XBXFXoXN.D.D nX7XnX4XaX_.N.].bXHXdXC.).I.OXI.XXJXAX$X%X{.bXNXHXUXMXMX<XA ",
"`.'.ZXjXaX`.lXlXSX9X0X0XqXk.i.|.oXS.A.D mXNXmX4XjX(.z z oXcXfXrXb N.N.%.&.#X#X$XZXvXbXyXtXMXMXMXlXjX",
"P I j.$.U , c h 1.6.qXk.k.` @.u.S k D Z 4X5Xy.} 2 6 K.N.M.Z Z D S c n s $.| >.#XvXb M.m.k k Z B c l ",
"T @.l.@.I > s a p ..[ [ [ [ @.4.g N A V 4X1.h s W 5 * 6 b D D Z Z x j , } o.+.CXFXv m.S.S.Z a X.w.;.",
"^ J x.J H F p a j ..@.[ [ ` ..q 8 N y.M 4X3.X.#.&.W * 6 L.q.Z g g g d 8  .<.4.VXFXS k S.S.S | { o.o.",
"h.^ x.J J P X.l @ _ ` [ ` ) ( q d q q q 7X6Xf } 1 F.E.E.K.l j g d B M 8  .<.<.s.lX_.oXyX_.'.u.O.O.+.",
"@.@.k.@._ _ X.B 1.<.[ ] ] ( w e B  .M M 7X6X3.1..X}.I.K.E.P.#.l h h 1.0 0 ) ) a.5XA _.A.b *.} F I @.",
"h  .7.) 0 @ d h 1.' ] ] ] q m t i q 3.M mX6XM h (.}.}.!.E.&.4 2 p 8  ._ 0 ( 8.qXVX0 i g a , @ + @ P ",
"lX4XBXzX3.1.4XlX|.hX8X8X6X4X<XtX4Xy.4X4XmXSXkXxXvX.X%X:XOX:XZX%XAXf.|.BXGXBXDXDXIXDX5XgXjX`.xXd.d.gX",
"aXr.kXkXr.pXbXNXjXGXGXGXSX5XsXnXnX4XmXkXmXgXt.w.L.5 E ~.!.K.%.%X{.>.>.f.i.4.8.k.k.z.8XgX4XzXNXD pXaX",
"A j g g i Z.).Z.K.#Xj.+X#X>.x u m 1Xm V N a s ; & * L * R %.R &.>.I | g.u.@.@.[ ` k.s.e.A aXMX- z Z.",
"A y u y k S.N.c.6 @XL ! %X$.s i m 1Xm N x h P.E E * * * R & % u.,.| $.{.p.p.z.z.qXz.a.t.D nXMX$ x b ",
"g i m e k V.m.6 * @XG.G.^.4 6 - m 1Xt e i = %.E T.E.F.W W U : XXi.| P | | | +.+.+.4.t.fXrXMXLXm u Z ",
"i e wXwXV.V.M.6 F.=XH.H.^.6 m.3 t r t e - = 5 R Q W.+X&.&.W.,.#X+.{ P < } O.| o.# h aXfXeXMXKXm m m ",
"m r wXwXn.n.k N.K.E.F.v.B.b.3 $ n.r r k y y s #.R U ! :.:.:.:.AX_ @ @ @ @ < { < y ).MXyXeXMXLX<Xt 1X",
"KXuXuXiXeXV.C.oXJX:X-X=XB.b.m.B.D.D.cXfX_.-.s =.o.,.#X,.| {.&XAXVX8X6Xf.f.d.[.;./.oXyXyXtXuXLXLXKXKX",
"rXC.S.yXcXbX X}.P.U.-X6 c.Q.B.B.;X;X;XOXvX X0.u.4.4.s.i.i.>.I | z.SX..+ _ @ . % % c.3 $ k k V.LX<XiX",
"y v Z./.).I.].(.%.l  X= % c.N.v.B.m.N.N.5 < < _ <.( <.<...G @ G ....@ # . ; 6 * N.Q.b.3 N.v fXtX1XC ",
"a Z.]./.Z.L.L.b c g `.=   k M.M.v M.).;.} X.i.s.7.<.5.7.3X) H @.f.=.s 2 2 5 !.U.v.Q.v.B.oXD.bXA.m u ",
"s *.b b z b v c 9.c xXg   y m.k v M._.q.< o.u.4.s.6.a.3X8X6.) 8.=.c -.L.L.U.!.OXF.* U.c.c.v v x u g ",
"o.{ 1 a n b q.|.d.0.SXo.O , v k m.k b b < o.i.o.a.e.4Xe.a.a...u.q.b b (.P.> 4 K.* % > & . % x S a a ",
"..{ p l c s c gXf.s.DXz.+.:..X!.N.b.c.5 #.g.gXt.y.V D A A 0.| =.bXoXl ;.;.; % : & & . : < O |.t.= j ",
"8X8X5XXXd.w.u.f.i.@.$Xz.h./ *X:X-X=X=XQ.}. X|.y.MXnXyXyXcXoXI.OXZX.X(..XXXp.#Xj.j.$Xl.j.#Xf.GX5XpXpX",
"DX8X<.0 9  .} P G F T J ^ ~ / *X^.=X=XH.E.%.y i tXV.V.V.M.m.6 }.&.U } $.P I k.J ^ j.j.F @ _ +...A S ",
"7X6X0 5.( ..+ { p + @ I T ~ ^ >X:XH.@XF.E..X_.k tXeXeXeXD.D.B.oXOX,.,.@.@.h.@.h.J x.J @.` F _ p O = ",
"2X3X' ] _ ( + p p 2 ; > P F J ! *XH.@XY.W..X'.Z iXeXwXeXV.yXD.oX}.>.>.@.k.k.` k.` x.J J J _ @ O O a ",
"2X2Xw ( ( o.f a Z D Z v h f { +.&X+X#X+X#XXXgX_.rXC C r 1XtXrXpXd.4.i.6X6X7.] ] k.qX( ( d 9 0 8 q d ",
"7X7Xw 0 9 f - O k C.V.1XD B 3.<.i.J @.F P 1 1 x _.C C D tXnXrXfXy.4.5X6X3X5.] 5.] 3X .8 8 w B 3.M q ",
"PXPX4X5X9.q.Z.Z.oXcXcXcXlXkX7XDXqXk.qX4.5X`.w.`.aXfXpXdXmXmXnXdXpXhX6XkX8X7X6X3X9XSXSX6X5Xt.gXzX6X7X",
"7XmX4XlXjXOXOX;XoXoXoX_.t.d.s.8XqXqX8Xa.VXlX_._._.A A y.r.gXpXbXvX%X#XVXBX8X6Xs.SXBXBXGXZX%XvXjX6XSX",
"<X4XD q.).oXQ.B.Q.U.K.:.p.@.@.h.8.8.4.X._.A.Z k x j j p l ;.I.OXT.T.W.@X{.I I >.! Y :.G.+XG.W Q p 5X",
"4XnXfX).D.B.;X=X=X~.@X%X&Xl.h.k.z.s.t.h Z.D k x A p p U $.W.K.@X*X@X@X&XW.o Y ,.:.~ Y.+X@X>XG.W < e.",
"4XA.C.D.oXB.Q.Q.Q.=XE.~.AX{.;.w.|.pX_.Z.C.Z./.q.X.{ +.@.T ! ! G.+X*XT.%X[.; @ @ > Y ! G.+X+X! W ; t.",
"j q.N.n 3 3 B.B.c.N.z (.(.*.q.b x x x S _./.S *.o.{ O.@.@.T T Y.G.@XK.}.w.O = j < & & : ~ Y : : ; q.",
"0 f c Z.N.6 6 = = y y g N d Z x f + p w.`.-.l s X.p  .} } U 1 %.K.P.-.|.w.O # X @ P P + o . X - = S ",
"SX6Xw.jXbXvXvX|.lXdXmXmX4XmXNXlXhX#XVXZXZXZX.X|.|..XxXgX|.|.[.[.'. X].FXNXy.B 1.p t.|.g.*.c -.|.xXNX",
"] 5.0.w.P..XZXw.4X<X4X2X2X4X<XA =.g.p.,.:.$.;.R.vXZXvXjX'.jXvX.X[.w.q.jXFXdXsXlXNXmXkX9.h s 5 l w.9.",
"_ ..=.}.K.E.XX*.q q ,X,Xq 2.d ; R ! W K & & L Q !.bX).n = -.`.;.R.;.$.P.|._.Z V V V V g *.#.E %.l , ",
"f.| E E.F.F.#X;.q q 2X' 2...@ 5 F.W F.~ K K L F.OXOXN.6 6 n [.R.%X~.!..X.XgX1.3.2X7X7XzX#X^.H.^.!.z ",
"} W I.^.H.~.%XW.f 3.2.' 8.` Y K.L K L F.G.~ G.T.^.OXN.N.6 n P.P.G.G.G.K.{..X6X7X7X7X6XhX%X=XJ.H.!.z ",
"> K.=X=XJ.@X@XQ #.0 2.3X..G ! Y.Q Q W +X+X*X@XW * ].3 M.v - ).I.G.G.! G.W.VXDX3X3X3X6Xs.#X^.J.J.!.}.",
"R E.^.J.b.^.@XQ < 9 ( ( H F Y E %.P.~.W.Q K Y : 5 /.= - - $ v -.! G.G.,.+Xz.s.] 5.] 6.4.{.%XH.H.R.g.",
"> %.v.7 7 F.K.> s 0.e.3.+.=.K.I.).oXbX X|.g.w.u.VXzXsXpXdXdXbXvX#X&X&XAXCX#Xs.4.5.7.7. .=.{.Y.:.o.+.",
".X XZX-X^.T.~.{.*.d.6XVXGXvX!.bXHXMXHXNXFXBX5X6XhX7XkXmXFXFXlXjXZX&X$XCXCXCXz.i.5.3X7.4.5XZXjXZX#Xz.",
"j c ).oXU.E 5 > ; @ < { VX=.5 M.tXyXuXtX<XV q  .3X' ] 3.5Xd.c b ;.#.} < >.z.) _ H H _ o.hXzXfXaXt.g.",
"- v D.).).U.K.#.1 @ @ I VX>.#.].eXeXyXiXD V 3.2X3X3X5.5.a.w.= 2 % % ; . { i.H H ` ` O.+.zXlXC Z n l ",
"k M.S.m.N.].R.&.> o F F $X@.,.`.S.eX1XtXD V 2.' ] 3X8.s.|.L.3 7 * * E ; *.|._ { + F : ; w.S $ i = * ",
"C.V.m.m.M.N.z $.R : I F l.>.W.[.fXtXS.fXZ N 6X2.] k.4.{.OXQ.B.v.F.^.!.4 #.g.p s { #., X x v e = z U.",
"e C.V.m.v 2 1 R $.O.` H #X{.~.OXaXfXC rXZ B 3.2.5.] +.R.~.Q.v.v.F.Q.Q.* K.;.s w.(.s , u rXyXk C.Z.6 ",
"$ V.C k b 2 > U | +.) _ hXR.@XOX'.fXC D D V 3.<.3X<.O.W.^.J.b.* v.F.F.* K.P.l aX_.l a u tXyXC C.n $ "
};
