/* XPM */
static char *_4a617512b474b68f9ab34e3c6670d08ykTxKwezGuDnhZEV[] = {
/* columns rows colors chars-per-pixel */
"50 50 152 2 ",
"   c #0691AE",
".  c #0892AF",
"X  c #0592B0",
"o  c #0B95B3",
"O  c #0E99B6",
"+  c #0B97B9",
"@  c #0D9BBB",
"#  c #1197B2",
"$  c #139AB6",
"%  c #139DBC",
"&  c #199FBB",
"*  c #0CA2BD",
"=  c #15A1BE",
"-  c #1AA1BE",
";  c #0D9FC3",
":  c #149FC1",
">  c #04A0C6",
",  c #0DA4C4",
"<  c #0FA9C6",
"1  c #15A3C3",
"2  c #1AA5C3",
"3  c #15A8C7",
"4  c #1DA9C5",
"5  c #16A6CA",
"6  c #1AA7C9",
"7  c #15ABCB",
"8  c #1DABCA",
"9  c #1EB1CC",
"0  c #13ACD3",
"q  c #1CADD1",
"w  c #1DB2D2",
"e  c #1FB5DA",
"r  c #21A6C5",
"t  c #22AAC6",
"y  c #23ADCB",
"u  c #28AFCD",
"i  c #25B1CE",
"p  c #2AB2CE",
"a  c #32B4CD",
"s  c #35B9CE",
"d  c #23AFD1",
"f  c #2CAED0",
"g  c #25B3D2",
"h  c #2BB5D3",
"j  c #25B9D5",
"k  c #2DB9D5",
"l  c #25B6D9",
"z  c #2BB7D9",
"x  c #25B9DB",
"c  c #2DBBDA",
"v  c #32B6D4",
"b  c #32BAD6",
"n  c #38BBD6",
"m  c #33B7D9",
"M  c #32BDDB",
"N  c #39BEDC",
"B  c #2DBDE1",
"V  c #33BEE0",
"C  c #39BFE1",
"Z  c #41BAD5",
"A  c #2DC0DD",
"S  c #36C1DE",
"D  c #37C3DE",
"F  c #36C1DD",
"G  c #35C1DE",
"H  c #3CC3D9",
"J  c #3BC1DE",
"K  c #38C2DF",
"L  c #39C3DF",
"P  c #3FC2DE",
"I  c #3DC5DF",
"U  c #3AC2DD",
"Y  c #2FC4E5",
"T  c #2EC2E3",
"R  c #33C2E2",
"E  c #35C0E1",
"W  c #36C1E0",
"Q  c #31C6E7",
"!  c #35C2E2",
"~  c #38C1E1",
"^  c #39C3E0",
"/  c #39C2E2",
"(  c #3BC2E0",
")  c #3AC4E0",
"_  c #3AC4E1",
"`  c #3BC5E1",
"'  c #38C5E3",
"]  c #3BC5E2",
"[  c #3CC6E3",
"{  c #3DC7E3",
"}  c #38C3E4",
"|  c #3BC6E5",
" . c #38C4E7",
".. c #3DC7E4",
"X. c #3FC6E6",
"o. c #3BC5E3",
"O. c #33C8E6",
"+. c #3BC8E4",
"@. c #3CC9E5",
"#. c #3FC9E6",
"$. c #3DC9E6",
"%. c #36C4E8",
"&. c #36C6E8",
"*. c #3DC6E8",
"=. c #3BC7E8",
"-. c #36CBE9",
";. c #38C8ED",
":. c #3BC9ED",
">. c #3FCBEC",
",. c #3ECAEA",
"<. c #3ED3EE",
"1. c #3BCBF0",
"2. c #42C2DB",
"3. c #42C9DF",
"4. c #43C6E2",
"5. c #41C8E5",
"6. c #41CBE7",
"7. c #42C9E6",
"8. c #4FCBE7",
"9. c #41C7EA",
"0. c #41CAEA",
"q. c #42CCE8",
"w. c #42CEE9",
"e. c #44CEEA",
"r. c #43CCEB",
"t. c #49CCE8",
"y. c #4CCEE8",
"u. c #4BCDEB",
"i. c #49D0E6",
"p. c #44D0EB",
"a. c #45D0EF",
"s. c #47D1EE",
"d. c #45D1EE",
"f. c #48D2EE",
"g. c #4BD2EE",
"h. c #47D4F2",
"j. c #46D2F2",
"k. c #4AD4F0",
"l. c #4AD4F1",
"z. c #4DD7F3",
"x. c #4BD5F2",
"c. c #4ED9F6",
"v. c #46D6F8",
"b. c #48D7F9",
"n. c #4FDBFC",
"m. c #54D7F4",
"M. c #51DBF7",
"N. c #53D9F7",
"B. c #53DDFA",
"V. c #53DBFA",
"C. c #5AE1FF",
"Z. c #5CE7FF",
/* pixels */
"l Y 5 = p n y.2.a 2.N z l g 0 0 | - k h - q.p k t F O b p = I t i O 4 A = H G - A g j k i i w p M n ",
"Q B 6 8 b N n p v N h % 5 q e ; g 6.s.z.F k - - { p - 6.4 i M.- 4 k s.b = h F k @.I g 3 1 1 1 @ t k ",
", * 3 h K J n t.v r 2 : q 8 B B 8 H p 2 4 4 $ 2 i [ $.M.t = h 4 F I 7.h i 2 = 4 . j h g M c V d p z ",
"c g c k k u 2 v *.m b z 8 5 < l 4 4 F t k k.t h i.D t k t i i p $ O t 2 b F k k h h.k t c c c d g h ",
"w.b h t v E 8 d y z V z @ R j g i = F - = D p h s.& = K i F { F n 7.C.k r h M $ w.p.2 : z m d % 2 p ",
"s p y 8 c 0.%.%.1.B B l @ D 4 = k p [ [ K K K % = i [ B.b - = k - t ^ r X 4 k 2 y z d y M } c h [ +.",
"H i.( b z d d q ;.; l c k D h k #.M h t k b ] b u k.i p D 2 . b y r y b v N h C [ C ..4 5 C z h c < ",
"s H p M C l d 5 B , ;.x G M F p 4 t e.y k k 2 e.k ..= i [ #.I F t m v m M N % d y 1 g : g Z.} 6 w , ",
"s a # k y q B q l 5 B q z k k +.u g g M N g g d k g y 4 h d 4 C f 4 N : h m 2 y y 5 l 9.:.f : d b.,.",
"H 4.- D y : B q q ; l 5 i t h D h ..} } M y y y y h d y g C g h t y h h N 2 c 9.m z z V B d B 0.j 4 ",
"= - p +.z z z B : : : d M c @.| u | N z c 4 4 4 t M c g g 9.h g c M h 8 d y z y %.f : : l C E c 3 * ",
"A i c.$.b C + 4 l B B C E l x l 6 h 8 y M z g h d c b h 2 g 4 h M t k O : | d 2 6 d d q : d l l w 9 ",
"b 4 c y i K h 5.f C M =.g @ 7 q 3 g 8 d z z } >.} l c } d d 2 l ' 1 g i 6 c 1 g 1 z R w 1 5 q l k k ",
"A D 1 1 h t 3.n m m y k g w q 0 d d d g y 5 c >.} 8 h M M z 8 u ' g 2 j 8 8 g 3 q l l q 5 7 7 q m v ",
"x x 9 y 5.n P a u.n f c x T 5 , V 8 y z 8 & l V 6 % l 6 d 8 d : y 2 ; 8 5 A O.8 5 q x c w 1 5 8 k b ",
"7 * l % M J - r u f M =.l B 5 e b.y 6 } z l | c % 8 r.: 2 u } y A % h D 1 g 8 @.l 6 7 ;.v.&.7 + p h ",
"b h y I g D 8 c D p.6 l z B %.z z z m 6 h.D * A D D A s * u v - t 2 h i - M i M 1 . ,.c 5 M q g 4 i ",
"h K y i i f.' i l l @ c f y l C 9.8 8 6 D A j 9 A 9 i.i s 4.m.4.i.i F 4 F 7.i = y 6 ' o M l d + 9 i ",
"n ( y i i g j 1 g j 6 6 6 z z B m *...| $.i 3 A j i H 4 - 4.s n M = D h K k % i h ,.r.D n.d 2 l @.G ",
"/ u.M #.E 2 j g 9 g 8 1 l >.V f a.M f M 4 * A = 9 A A i - a # r H = 4 p M g.y +.i i 1 6 =.y % z j 1 ",
"t m y p u 1 c g 1 @ 8 l 0...d d y j.2 4 M 6 9 A = i D b q.a K K - p k - . y 4 #.1 & 0.6 r.V c q c 3 ",
"( m 2 k z 8 h z 8 l x g z l l d : / } z.G i D D A g i h v p 7.t.4.b h k g.b i i : 1 r.M l y 1 1 v.R ",
"K i = K b y @ 4 c j.M 1 6 6 B y m 5.4 i p j h A D A 4 t o h v p 2 p i { c.= 4 i z.z o g 2 l 2 B c 3 ",
"= i M t.M r.d l V } 8 4 z 1 z y u y f M X 1 k g A = F t y #.n $ . 4.= 4 t y j 2 g N 1 k C g C >.8 @ ",
"K p $.F = c j.k d 4 : 5 y d d 8 h $ D H = 3 4 t p - = g D t I A p b O b +.{ 2 i 8 z c M % l r.z w g ",
"M 4 t i i h M 0.V z V d l 8 B V p b 4 h s I G F 4 - i i.i t t w.4 I t p z I i p M M M C 6 % z d z l ",
"[ F 2 = *.r.h C c g z 8 8 3 l V F g.- 6.<.D A - 9 = i i g G p 4 = F k t h k p h b u d y l : g d c M ",
"g k 4 = M E 2 y C z 2 c 8 V q h I v # A 4 - $.h j i I 9 c A G p i b p t I i i p g c z y y 4 d 1 k k ",
"4 = y k M 4 2 *.z V 8 %.c ;.g g F p p p p t f.I h p 1 ,.z j i k h F k i 7.i y y % d b g : 3 1 6 p p ",
"F y h k M C C r.d f C z c c x 9 p $.f.s m.] h 4 4 4 1 G c 4 g 2 = k k t D p g y c k M r.M :.M M y y ",
"D A g 2 h 9.v d 4 z | g c l T j p b i = { k 4 p = h h.c 9 1 c i 2 p 4 2 D h u y } y h z i V y O p p ",
"k F h u m y @ h 2 h l 3 1 g c j D t = H F 2 i k p y h i = g = = #.k $ u w.h = 2 t t j.d = z } 4 M I ",
"k k.N K A 4 A j 3 <.A ' R c g y g g 1 g c E 4 % M k y t u v N e.b l t 2 y d m / m $ t t $ N u h A , ",
"a n v k k i 9 4 9 3 9 ' G @.C : 1 9 g j c y g M h p h p r v ( v h 6 6 V %.y @ 2 ^ v u p u m.h 2 c < ",
"v v & 4 t = i 1 j * 9 i g C V 6 A F j h @.g [ ' t h 2 $ N j.M r t d d h m g 4 y k M r b N J r h z.G ",
"M I 2 F F 3 @.i * i @.j >.M : 1 c k 2 3 c 8 z y 2 4 b h t ^ 7.8 y N g 2 y M C b 2 v % - N y u ] p = ",
"- 4 i @.H 4 p 2 X 4 @.k :.} l G i @.k k y i c D y D g t C M f f d b m u y p p p z a.h o r.| h.E 0 > ",
"A - k.@.k H r u N.E #.c 8 7 g 7 t D k h = 4 4 k 0.8 4 g z } V : u ^ N u u h y 2 y N z + b 6 h 8 e 0 ",
"@.9 D p - b p h N f i k 9 e O.A <.v k p p k 4 F 2 h l h h y 8 z u n b t u v p r m g C %.c + 8 l M l ",
"A j * i i k V.n m 0.4 2 * 3 e <.$.= p - b p = D % y M M 7 2 8 y b r 2 v J u - h f 2 d C 8 y 8 y n s ",
"A 9 9 i ^ b v v f t u % l -.7 A h t - O k s k $.z + c h : 4 + 1 n N & 2 g.4.& y M y z z M 2 6 6 t s ",
"9 = - = b n K q.C r y d 6 8 w 7 4 k $.t g h.$.c.} y 4 l l z | m V.4.r & u h p K 2 y l C 6 =.C 2 p p ",
"A - b h ^ k - u m z k c 8 3 j * k % y g k z.O   u 2 1 h z f h 2 u t h h y u m b V 2 r j.8 V c g i 9 ",
"H A b y h M i k d 0.M 4 l j 9 8 ' 4 M D t F p G B.M M h M 0.g v N.b u t v 4...u / V m f % u k @ 8 z ",
"A s k 4 p @.A H G A z * y c 2 l k } c.G @ + c u r.h & O h N 2 2 } V d O y y f z % u y $ r h v h H H ",
"H 7.F H b A 4 * ,.= j c g c 8 f 6 2 g A | M z.g y ..4 i K t u t 2 M ..h / y y *.b J h M N k & v f.F ",
"v 4.t b g 9 9 j j * g G z C h d } w 7 g 8 8 m z k V.b k n 2 m 7.c z 8 : >.l 2 & # p n v e.m.k.0.A 9 ",
"$ a - s.D 9 e A * j 6 + l C P N @.T g 8 @ M h d y M t 4 4.b - t 4 6 z g 0.8 y u y o h u m.v 7.b , , ",
"n h u.t.d x 3 e 3 6 u c D k a N b i 8 4 M [ i y q 5 6 l V h a v d : 8 c 1 } c i t t 7.F p 2.4.p 4 9 ",
"I t n v u Q < 7 M M m G H b Z y.h w 9 i b { c M d 6 6 d g y t h h 5 8 T = A k 8 y t I F s 4.3.t h k "
};
