/* XPM */
static char *d8200c53ee2946bdf68fab24377b60ccpb1mPB0LQ88n3e81[] = {
/* columns rows colors chars-per-pixel */
"75 50 104 2 ",
"   c #C1272D",
".  c #C2272D",
"X  c #C0272D",
"o  c #B02C2E",
"O  c #B52B2D",
"+  c #5C4630",
"@  c #C3262D",
"#  c #96342E",
"$  c #175B32",
"%  c #654330",
"&  c #006333",
"*  c #B92A2D",
"=  c #335231",
"-  c #155C32",
";  c #99332E",
":  c #1D5932",
">  c #704030",
",  c #C4262D",
"<  c #664330",
"1  c #305331",
"2  c #BB292D",
"3  c #624430",
"4  c #C6252D",
"5  c #BD282D",
"6  c #B42B2D",
"7  c #B62A2D",
"8  c #B82A2D",
"9  c #95352E",
"0  c #1A5A32",
"q  c #8B372F",
"w  c #B62B2D",
"e  c #604530",
"r  c #285632",
"t  c #265632",
"y  c #2A5532",
"u  c #295532",
"i  c #1C5932",
"p  c #056033",
"a  c #245732",
"s  c #B22C2D",
"d  c #5D4630",
"f  c #085F33",
"g  c #1E5932",
"h  c #6E4030",
"j  c #7D3C2F",
"k  c #7B3C2F",
"l  c #753E2F",
"z  c #1B5A32",
"x  c #454D31",
"c  c #1F5932",
"v  c #086033",
"b  c #86392F",
"n  c #395031",
"m  c #9F312E",
"M  c #C8252D",
"N  c #A3302E",
"B  c #93352E",
"V  c #C7252D",
"C  c #A0312E",
"Z  c #3A5031",
"A  c #A62F2E",
"S  c #434E31",
"D  c #694230",
"F  c #2B5532",
"G  c #424E31",
"H  c #BA292D",
"J  c #6B4130",
"K  c #0E5E33",
"L  c #584730",
"P  c #B9292D",
"I  c #7F3B2F",
"U  c #046133",
"Y  c #91362E",
"T  c #C3272D",
"R  c #225832",
"E  c #484C31",
"W  c #195A32",
"Q  c #AF2C2E",
"!  c #BE282D",
"~  c #3E4F31",
"^  c #564830",
"/  c #BF282D",
"(  c #7A3D2F",
")  c #A52F2E",
"_  c #8C372F",
"`  c #145C32",
"'  c #85392F",
"]  c #773E2F",
"[  c #275632",
"{  c #A4302E",
"}  c #5F4530",
"|  c #A82F2E",
" . c #2E5432",
".. c #365131",
"X. c #87392F",
"o. c #365231",
"O. c #A92E2E",
"+. c #444D31",
"@. c #A72F2E",
"#. c #BF272D",
"$. c #90362F",
"%. c #91362F",
"&. c #763E2F",
"*. c white",
/* pixels */
"                                                                                                                                                      ",
"                                                                                                                                                      ",
"                                                                                                                                                      ",
"                                                                                                                                                      ",
"                                                                                                                                                      ",
"                                                                                                                                                      ",
"                                                                                                                                                      ",
"                                                                                                                                                      ",
"                                                                                                                                                      ",
"                                                                                                                                                      ",
"                                                                                                                                                      ",
"                                                                          .                                                                           ",
"                                                                        X o X                                                                         ",
"                                                                      . O + O .                                                                       ",
"                                                                      @ # $ # @                                                                       ",
"                                                                      @ % & % @                                                                       ",
"                                                                    . * = - = * .                                                                     ",
"                                                                    @ ; : > : ; @                                                                     ",
"                                                                    , < 1 o 1 < ,                                                                     ",
"                                                    . . . . . . . . 2 = 3 4 3 = 2 . . . . . . . .                                                     ",
"                                                  5 6 O 7 7 7 7 7 8 9 0 q 2 q 0 9 8 7 7 7 7 7 w 6 5                                                   ",
"                                                . O e r t y u r r u i p a u a p i u r r u y t r e O .                                                 ",
"                                                  . s d f g h j k l z x j k j x z l k j h c v + s .                                                   ",
"                                                    . X b t n m M N : B V , V B : N M C Z t b X .                                                     ",
"                                                        @ A S : k D F O .   . O F D k : G A @                                                         ",
"                                                          @ H J z K L ,       , L K z J P @                                                           ",
"                                                            . @ I U t Y . T . Y t U I @ .                                                             ",
"                                                              , l R E W J Q J W E R l ,                                                               ",
"                                                              ! ~ ^ / k W g W ( / ^ ~ !                                                               ",
"                                                            @ ) : _ @ b 0 ` 0 ' @ _ : ) @                                                             ",
"                                                            , ] [ { d $ } | e $ d { [ ] ,                                                             ",
"                                                            / S  ...a b X @ X X.a o. .S /                                                             ",
"                                                          T O.$ p +.A @       @ @.x p $ O.T                                                           ",
"                                                          , k - h H @           @ H h - k ,                                                           ",
"                                                          #.l $.. .               . . %.&.#.                                                          ",
"                                                          X 2 @                       @ 2 X                                                           ",
"                                                                                                                                                      ",
"                                                                                                                                                      ",
"                                                                                                                                                      ",
"                                                                                                                                                      ",
"                                                                                                                                                      ",
"                                                                                                                                                      ",
"                                                                                                                                                      ",
"                                                                                                                                                      ",
"                                                                                                                                                      ",
"                                                                                                                                                      ",
"                                                                                                                                                      ",
"                                                                                                                                                      ",
"                                                                                                                                                      ",
"                                                                                                                                                      "
};
