/* XPM */
static char *_abc04b953eb456ced98e6e7929e3dac75oc9w00NVuy2CF6[] = {
/* columns rows colors chars-per-pixel */
"100 50 256 2 ",
"   c black",
".  c #010101",
"X  c #020202",
"o  c gray1",
"O  c #040404",
"+  c gray2",
"@  c #060606",
"#  c #070707",
"$  c gray3",
"%  c #090909",
"&  c gray4",
"*  c #0B0B0B",
"=  c #0C0C0C",
"-  c gray5",
";  c #0E0E0E",
":  c gray6",
">  c #101010",
",  c #111111",
"<  c gray7",
"1  c #131313",
"2  c gray8",
"3  c #151515",
"4  c #161616",
"5  c gray9",
"6  c #181818",
"7  c #191919",
"8  c gray10",
"9  c #1B1B1B",
"0  c gray11",
"q  c #1D1D1D",
"w  c #1E1E1E",
"e  c gray12",
"r  c #202020",
"t  c gray13",
"y  c #222222",
"u  c #232323",
"i  c gray14",
"p  c #252525",
"a  c gray15",
"s  c #272727",
"d  c #282828",
"f  c gray16",
"g  c #2A2A2A",
"h  c gray17",
"j  c #2C2C2C",
"k  c #2D2D2D",
"l  c gray18",
"z  c #2F2F2F",
"x  c gray19",
"c  c #313131",
"v  c #323232",
"b  c gray20",
"n  c #343434",
"m  c #353535",
"M  c gray21",
"N  c #373737",
"B  c gray22",
"V  c #393939",
"C  c #3A3A3A",
"Z  c gray23",
"A  c #3C3C3C",
"S  c gray24",
"D  c #3E3E3E",
"F  c #3F3F3F",
"G  c gray25",
"H  c #414141",
"J  c gray26",
"K  c #434343",
"L  c #444444",
"P  c gray27",
"I  c #464646",
"U  c gray28",
"Y  c #484848",
"T  c #494949",
"R  c gray29",
"E  c #4B4B4B",
"W  c #4C4C4C",
"Q  c gray30",
"!  c #4E4E4E",
"~  c gray31",
"^  c #505050",
"/  c #515151",
"(  c gray32",
")  c #535353",
"_  c gray33",
"`  c #555555",
"'  c #565656",
"]  c gray34",
"[  c #585858",
"{  c gray35",
"}  c #5A5A5A",
"|  c #5B5B5B",
" . c gray36",
".. c #5D5D5D",
"X. c gray37",
"o. c #5F5F5F",
"O. c #606060",
"+. c gray38",
"@. c #626262",
"#. c gray39",
"$. c #646464",
"%. c #656565",
"&. c gray40",
"*. c #676767",
"=. c #686868",
"-. c DimGray",
";. c #6A6A6A",
":. c gray42",
">. c #6C6C6C",
",. c #6D6D6D",
"<. c gray43",
"1. c #6F6F6F",
"2. c gray44",
"3. c #717171",
"4. c #727272",
"5. c gray45",
"6. c #747474",
"7. c gray46",
"8. c #767676",
"9. c #777777",
"0. c gray47",
"q. c #797979",
"w. c gray48",
"e. c #7B7B7B",
"r. c #7C7C7C",
"t. c gray49",
"y. c #7E7E7E",
"u. c gray50",
"i. c #808080",
"p. c #818181",
"a. c gray51",
"s. c #838383",
"d. c #848484",
"f. c gray52",
"g. c #868686",
"h. c gray53",
"j. c #888888",
"k. c #898989",
"l. c gray54",
"z. c #8B8B8B",
"x. c gray55",
"c. c #8D8D8D",
"v. c #8E8E8E",
"b. c gray56",
"n. c #909090",
"m. c gray57",
"M. c #929292",
"N. c #939393",
"B. c gray58",
"V. c #959595",
"C. c gray59",
"Z. c #979797",
"A. c #989898",
"S. c gray60",
"D. c #9A9A9A",
"F. c #9B9B9B",
"G. c gray61",
"H. c #9D9D9D",
"J. c gray62",
"K. c #9F9F9F",
"L. c #A0A0A0",
"P. c gray63",
"I. c #A2A2A2",
"U. c gray64",
"Y. c #A4A4A4",
"T. c #A5A5A5",
"R. c gray65",
"E. c #A7A7A7",
"W. c gray66",
"Q. c #A9A9A9",
"!. c #AAAAAA",
"~. c gray67",
"^. c #ACACAC",
"/. c gray68",
"(. c #AEAEAE",
"). c #AFAFAF",
"_. c gray69",
"`. c #B1B1B1",
"'. c #B2B2B2",
"]. c gray70",
"[. c #B4B4B4",
"{. c gray71",
"}. c #B6B6B6",
"|. c #B7B7B7",
" X c gray72",
".X c #B9B9B9",
"XX c gray73",
"oX c #BBBBBB",
"OX c #BCBCBC",
"+X c gray74",
"@X c gray",
"#X c gray75",
"$X c #C0C0C0",
"%X c #C1C1C1",
"&X c gray76",
"*X c #C3C3C3",
"=X c gray77",
"-X c #C5C5C5",
";X c #C6C6C6",
":X c gray78",
">X c #C8C8C8",
",X c gray79",
"<X c #CACACA",
"1X c #CBCBCB",
"2X c gray80",
"3X c #CDCDCD",
"4X c #CECECE",
"5X c gray81",
"6X c #D0D0D0",
"7X c gray82",
"8X c #D2D2D2",
"9X c LightGray",
"0X c gray83",
"qX c #D5D5D5",
"wX c gray84",
"eX c #D7D7D7",
"rX c #D8D8D8",
"tX c gray85",
"yX c #DADADA",
"uX c gray86",
"iX c gainsboro",
"pX c #DDDDDD",
"aX c gray87",
"sX c #DFDFDF",
"dX c gray88",
"fX c #E1E1E1",
"gX c #E2E2E2",
"hX c gray89",
"jX c #E4E4E4",
"kX c gray90",
"lX c #E6E6E6",
"zX c #E7E7E7",
"xX c gray91",
"cX c #E9E9E9",
"vX c #EAEAEA",
"bX c gray92",
"nX c #ECECEC",
"mX c gray93",
"MX c #EEEEEE",
"NX c #EFEFEF",
"BX c gray94",
"VX c #F1F1F1",
"CX c gray95",
"ZX c #F3F3F3",
"AX c #F4F4F4",
"SX c gray96",
"DX c #F6F6F6",
"FX c gray97",
"GX c #F8F8F8",
"HX c #F9F9F9",
"JX c gray98",
"KX c #FBFBFB",
"LX c gray99",
"PX c #FDFDFD",
"IX c #FEFEFE",
"UX c white",
/* pixels */
"6.7.6.3.2.1.<.>.;.-.=.&.#.+.%.-.%.%.+.| ] [ [ ] ' ` ' } .... . .o.O.O.o... . ...O.@.@... ...{ ) _ ` ' } .. .{ ` _ ' [ [ ] ' [ { { } |  . .X.O.@.X.@.{ | ../ +.{ .. .o.] } +...%.O... .] ..X._ o.o.X.O.$.",
"6.6.5.2.<.,.;.=.#.#.@.+.X...o.@.o.o.| ' ( ) _ ) ` ` ' { | | ..o.o.o.o...| }  .X. .o.o.| |  .{ ) ' _ ) ) _ ' ` ` ( ( ( ( ( ) _ ' ` ' ] ] ] [ } | X.] {  .( | +.{ +.{ ] ! R R R } ` ! { } ' ] _ ' ] [  .O.",
"4.4.3.<.>.;.*.%.+.+.+.O.X.| | ..X.X.| ' ) ) _ _ ) ) _ ' ' ' } X. . . .{ ] ] {  .}  . .} } | { _ ' _ ( / ^ / ) ) ) / ~ ~ ^ ( _ _ ) _ _ ` ` ` ] [ ] ] ] ' ) ` ..X.Q b s g z b G { ) | +.) E / ! Y ^ ( ' } ",
"1.1.,.;.=.=.*.%.$.#.#.#.+...| | X.X. .[ ` ) _ ` ( ( ( _ _ _ ] | } [ ] ` ` ' ] ] ] [ [ ] ] [ ' ( / / ( ( / ^ ^ ^ ) ^ ! ! ^ ) ) ) / ( ) _ ` ' ] [ ) ] _ /  .` ( s 4 a M B N D G A ` #.+._ ) ( R W ! ~ ( _ ",
"<.,.;.&.$.%.%.%.#.@.@.#.@.X. .| | | { ' ( ~ ~ / / ~ ~ ( ` ' ] { [ ' ) _ ' ] ` ) _ ` _ ) ) ( ^ ! W Q ~ ^ ~ ~ ! ! ^ Q E W ~ ^ ^ ! Q Q ~ / ) ` ' ' ' Q / _ } X.H & 7 5 i m c a u y ; t L O.X.! R E ! W Q ~ ",
",.>.=.$.+.@.@.+.+.o.o.O.+.o.X...| } } ] ( ! ~ / ! W W ~ ( _ ` ` ' _ ( ) ` ' _ / ` _ ) ( / ^ Q W W E E E W ! ^ / ~ Q E E Q ! Q W R E W ! / ( ) ) ( Q Q ~ ~ Q K f.,XU.f.8.T 3 X   >   % n W @.$.S R Y Y E ",
"=.=.&.@.+.+.O.X.+.X. ...X... . .| | | } ` ^ / _ ( ~ Q ! ! ~ ^ ( ) ( ^ ^ / / / / ) ( ^ ^ ~ Q E R W R Y Y E ! ^ / / ! W E W Q Q Q E R E W ! ~ ! Q Y W T L T C y.UXUXPXGXPXGXtXn.b ; .   3 z Y ..) J J P T ",
"@.$.$.@.+.+.o...+. .{ { { [ ] ' [ [ [ [ ) ~ ~ ) } ] _ / ! W ~ ) ~ ~ ~ Q E E ! / ~ Q W E E Y I I Y I P I T W Q W / ! E T T R W Q R R T R R R Y U P F P F Y H 1XAXbXCXSXFXCXJXUXnX'.5.3 X t r z { A F P R ",
"@.X.X.} '  .Q +...o./ ` } ) [ ' ` ' _ _ ) ! ^ }  .' ) ( ~ R R ! R E W W R T T R W Q W R E E R U I I I I U T R E ~ ! W T Y T E Q W W W W E R Y I P U Z P C | PXGXJXcXgXmXlXZXDXBXuX0X7.= o 5 - m ! A H W ",
"o...[ ` e.[.n.[ I E / T / | / ' / ) ! W ^ ! E ^ ~ Q ~ / ! Q Q T ! E T U U Y T T Y T R T T R U L P P P P I Y R E T R R T Y Y T R W W W E R T U P P J F J x Q.9X&X<Xf._ x ..n.T.+X1X<Xj.i : 6 4 6 T H L T ",
"@.( [ _ { D.<XrX5Xv.1./ W ^ [ ] ` ] Q I ! ( ( ' ` ~ ! Q T ! _ ! T U P I T T I K P I U U Y Y P J K K K K P U T E Y T E E E R R R E E E R T U P L L J P S Q m.S 0 ~.i.  & 3 q P 5.:X<XoX^ > 2 < , C F J K ",
"} [ ^ ^ _ C f ! V.MXGX9Xw./ G Q Y ( ( ~ ) ) Q Q Q P Y E P I U D U I I Y R R U L K P P P P I L H G G G H K I Y R T R W W W E R R R R R Y I P L L H Q Z B ~ ~ S * @XpXf %.o.4.~ 9.0XiX6X:.y p , 0 b V A H ",
"+.` ( ) } ] Z w 9 M y.lXUX7XC.%.T Y P I E ^ / ^ E J K T U U T I L K H H J K K K J J J H H K J G D D D F H L I Y Y T T Y U I I I U Y U I L J K K J D L D C 0 h Y.VX4X9X6XiXyX9XCXmXyXuXE.T E &.n G M C H ",
"} X.| W ^ ' ) J i 2 9 C C.lXFXmXhX^.6.~ Z F ~ _ ! E I L L J G H J J K L L K G D G G D S S F F S S A A S F H P I U U I P K J J J L L L K H H J L J S C U Z R Z.ZXbXqXmXeXW.0XVXdX}./.A.B.O.C.) #.) n C D ",
"{ I ! ] ` ^ ' K r u 8 0 4 XXIXFXQ.}.dXlXY.#.T A B L G Z L T I U L K J K I I L J D F D A A S S Z A Z Z Z S G K P P I P L J G G G G H J G F F J L I I L A S 9.J.7X*XqXW.sXIXvX@XN.w.k.6.X.0.t B $.{ h V B ",
"W [ ` T _ R W / Z q 0 e 4 } m.] 0 , ( }.hXzX4XI.m.N.,.G V F G I G N j f z B D H D F F S D D A V Z Z C C A F J L J K K K H F D D D F G F D F J L G L D D L |.;.$ 5 g V m.tXwXB.f.b.$.[ E {.W ] ).` y C M ",
"Y E Q W R T T T R D j 0 < ; - - 3 8 4 s @.{.zXhXFXKXGXwXL.o.P M v & = - ; 6 q N K S D A A A B Z S S S S A S H I K H F F F D A C S A Z C B B A G D P H Z Z b.n.  X o + M.~.[.].J.j.Q Q ! +.| |.^.a k b m ",
"( ! T P L L K H F L L B i 2 > , % , : : y [ G.+XNXNXVXAXHXSX4Xc.l.=.( z =   . , b S P N c C A A G S C A G L J F H G D S S A Z C A C V Z A C B M C G S J b !  .> @   x dX8X|.}.W.;.( R L X.R.'.} f z m N ",
"I R W R Y U P K L D C Z Z x 9 % - - = - = e ) q.kXmXNXGXAXAXUXNXu.h.N.n.q.{ v 1 X < l V C V b N n B V N A J G B D D S A C V V V M M M N N N C S D B z B M Y ` # %   v N.'.5Xh.t.;.^ C v E ^.k.v z n V Z ",
"~ ! T K J K L J J F S S D C z s ; @ X * % @ < 7 ;.Y.>XlXCXmXKX%X[ +.#.2.u.k.z.q.@./ P V c l x Z V M N A Z N C J Z A Z C B N B V C B N N M M V A N n B B z W %.% x y.G.i.7.J.a.4.#.G f w h ^ M h c m V Z ",
"~ E L G L Y L A A D D Z N M C S V z r 9 3 1 4 : < P 5.K. X<XHXx.R ' ^ ` { ..:.=.0.e.i.0.2.%.T m c c b N D H S B V V V B M m N B M v c m C A C V C b V Z k B [ f Y P l.].A.4.=.#.R s O 4 _ &.C c c b m B ",
") ' ( Y H G F Z S B b b B C N v c B C A V n k 6 - < k Q ' a.1X' x H P Q ^ R ) ] X.X.%.=.<.7.7.q.*.P x N A b c Z N N M m n n m M V V C V N N Z H S B c v N M I ( J Z.rXP.f. .x n r e @ r ' O.b z v v n N ",
"H.G.b.7. .Q L D B B N N M m b c b b z c v B G B a 6 # # 0 o.u.8 y g f z V A K Q W P Q ' [ [  .,.j.z.2.H l Z D z M m b v b b n n c v n m n c c b b C V b m m N  .h.x.j.2.G ; - + - % @ s / ] b b v v b N ",
"cXzXpX1X{.V.;.U b x k k z x l h k x b V m x M m B n 4 % % 9 1 * 5 t p s z x x V B Z L L I ! ~ _ @.1.j.n.:.B d B m b c x v b b v b c V ( :.2.+./ V x n M c b y N r * & % # %   = *   q M _ W x j x z x n ",
"CXZXmXeXMX[.X.P x g f k h x c g k l l l j k z b m M 6   $ q 7   - * 1 6 q w w h z x C C I I T ^ ' %.,.e.m.g. .F c v x v m g b l N h c E %.I R v.x.R a S Z h V * $ . + & . $ # X % # q N ..A.3.i c z c b ",
"bXeXyXsXfXY.R a 0 d V c l j h u k g g s l x n b c c t 5 N.0   & O # * o # 5 q e q i v B H G Y T W _ @.:.9.z.f.*.' ! k y v M l n z x c l k $   < $.f.[ a d B H k   $ #   O & $ =   & Z g.#XmX`.n m h k M ",
"sXtXfXuX*XP.} a r 2 w l j f k h t g c u s f x g l z v S.1X] X   %   + & $ = > 3 5 t j c v l F M E ^ ^ ( ..O...X.<.1.=./ f i s z j l l g j 0 , X X w.&XN.G j n w 4 & # # # o .   h :.}.;XqX<X4.{ n x z l ",
"eX=X@X|.^.c.} C y 8 1 c s t g a z s i s k j l c B w ' i.0.P.+XW X X ; $   X +   $ , 6 r t i G n D K S S P C n P ! o.0.q.' I F i g d k c c a w . 1 7.XX%XXX:.j c ( l o # = . a 4.!.OXoX;X}.:.K @.` m d M ",
"<X.XJ.p.b.8.~ m h 5 * { l.Y p u u d f k a f j m b E E 3 , w.[..X-.e   X = * # % X @ $ ; , 5 b a x l v c h b A V S E T Y #.O.$.P c f z l l x V f o X 3 p p.{.P...X.n o   # D j._.oX=X#XW.$.N ( { <.W n c ",
"}.=X_.>.X.^ W A i g 4 B XXR.9.( l a u a t f ! e.K.!.S.z I b.l.d.f.{ b 4 X . o # % $ @ + # + 2 $ 9 0 q e y y i s i M H B ( ^  .Z [ T K l h c c a d 1 3 + g X.W.*Xc.} j ) L.M.B.}.wXqXW.` S R ! R @.@.] H ",
"'.+X-XB. .^ ,.>.V u 2 ; =.y.e.j.*._ F 9 a W U.aXzXNXsXD 2 y c :.;.{ ~ H j 3 o O @ o + X $ o # o o % O = 9 : O 2 9 w N s N Y I i S ] 0.) h 9 d ~ ;.<.1.#.o.X.:.1. ./ ) i.KXsXpXlXKX X( z ! T ! o.[ { +.-.",
"f.c.R.c.( ,.c. .Y & < * & u 0 Z +.+X$Xt ; 2.sXqXiXfX9Xd a ) [ Y B A n r t h e 1 # o $ o * @ O # + + # @ @ & * o @ 3 l 5 M Q i 2 I m D c J Q E <.*.@.)  .` ] A 2 4 G J J DXSXLXHX*XJ H Q K Q ) ) ^ ^ ] ..",
"[ o.,.q.k.q.G v.U %   > 8 . + 2 B [.<Xs + H M.Z.7.=.Z.~ 1.<.T 5 , 7 > $ ; ; 6 m y # +   # *   & @ @ $ O O $ + @ o < r p P R r 5 U D d - c U X.$. .Q L F l r y g V D c $ qXJXPX}.S S P J G / I / L } ' } ",
"W E E ! ;.0.=.|.h . : 5 x 0 o $ k ] } >     , 6   5 _ k r 6 3 . + % o   + % 4 z M p C c 6   :   # $ . + +   O $ O : 7 2 r u % * j k 8 % t h / +.S g s 5   < V S T y y Q lXUXP.D L C J P K P Y P L / Q ^ ",
"A D S N Y ^ ( l.I % - 5 y q 1 . - & $ @ % &   O # % | ! X . $ + # O + * $ . 2 N b l B ` O.8   ; O + & o $ > + # O # ; @ @ $   % % < + o ; , I ! w , + X , l A m D 3.I H MXV.v V A v A J J S Y b Y T P I ",
"p c F A J B F ..v.+.b } l u , O @ + @ O . * @ + + X & H Z 1   * $ $ + + : y n F Y J , i t.0.- . o = @ @ O   + o # . @ + O $ + % o % . % # < W n ; X   , N P V x C / m V  .z b V F C A V C Z A g P F F S ",
"9 e j n F B W O.( ) ` &.3.g 1 - +   & $ O O + # % ; o   : p % # @   X 9 x b k g v Q g   h h.=.u >   o # * ; + @ * X + $ # % # + # % + %   w ` u o . w S F Z C c Z S x C f Z N C l z M A K I k v U H L Z ",
"8 < 6 i m b J E c J _ 3.>.[ 7 8 1 o # O * $ # O   X o ; .   2   O : t c z q 8 g C K P t = m *.d $   $ %     # O $ + # $ + + # # o O @ O o b ..v a b U ( W F M c v P F n S v n C g u p z V Z p U Q U I k ",
": $ ; 9 f d f d F m T ^ E | J S h 7 =   X # # + = & %   O &   . 1 V F i 9 s M J b N _ o.L 1 c h O . L OXC.5 O = o @ @ @ + + $ % @ @ $ @ w ^ +.)  .@._ R ( R V Z A F b D V V W F E C j p s g b ` ! I C : ",
"+ X # = , 1 > , l x m l m F !  .4.o.K u - O   $ o   o , & O & 3 G J M B T L m B ~ ] X.%.0.} y     <  XUXUXuXE   X $ + + $ # @ O # + o o c  ./ } [ ` [ { / Y J A ~ F K D L _ T L U Y R K L G / _ _ W N X ",
"o $ % @ $ = & O ; 5 y j M Z M l G ) { [ I y r > = - Z A s 1 ; 5 P W { } m a Y { [ +.O.#.@.9.y.P 1 5 =XSXFXwXE x s   + # O # - o + @ &   6 +.X. .] X.o.} ^ I L E F F J T ^ / E L Y E W I H I ~ ( [ ^ d O ",
"& o   o @ @ @ # & # # 1 d M v a w q c F V j ^ M q W D i A B * . L  .F 6 p P ` ` [ ` } | O.#.&.8.3.,.8XJXZX6.: g.V.s o O $ + X @ + # @   D ( | %.o.o.] ~ ^ ! U K G L T W E R R E R Y K U ! K m n ` G 8 O ",
"k 0 * @ @ + + # O o . + > 9 q 7 5 * 3 t y 3 K u t H m Z D p * q T p O 5 R ' T ' { } | } ..] ~ o.%.,.6.[.C.  . V %.>     & ; + $ # $ @   ` F C @._ _ ^ Q Q T K K L I T Q ~ Q U J ~ K Y R b f S / E f * # ",
"~ Z w $ O % % o o $ & @ X o # & 4 3 ; 9 t * s > d y y h e e f n M o q U U ! _ W W ) ! } | [ o.U ~ ] ! *.>., X % @ O > = @ O   + $ O % # ^ B ; W Q E Y Y I S S I U Y T I J J I R G P c t B ^ ( / N 3 o & ",
"Y m 7 @ O $ $ O # @ @ + @ @ O X # ; $ t e > r 1 e w l a j z p i l F P V L Q P / ` _ R ' / P ~ J P Y ) A ( F %     $     @ $ & * + . @ 2 E v   a E Y F B V C Z F K G F F G D V n z 7 a I ^ W L B q # o * ",
"j 7 % $ % + O # $ + o O # % $ + + X # y - % 9 , v u k e p t 0 z J G G Z S K L Y H K I P T H z b D C S n 9 3 x a i f w 3 O o # X + +   0 W q X o k Z C l l N B n Z B m n b k i q 6 C Y J K D k u & X + = ",
"4 & + % * + O $ @ @ @ @ + O @ % % o % 4 $ @ 7 t n y e 8 w a w 5 j A D C V B D J F L U S C n 9 = - 1 z P M > & L *.2.n.,.< . # # # $   t J % + $ 5 d l d d k k h z c z i 6 6 a n L C n v x x y % + o $ : ",
"& $ @ + + @ # @ @ + + @ @ @ + @ + $ # . * X ; k B g > 8 q 6 , 6 M A B V M V J m J S V D g a N q & @ $ 4 F J   3 O.S 3.O.+ # & + # + O i b + + d s r 7 w s s i s u 0 6 e l B V m n b x k i 1 @ O $ @ & < ",
"@ @ @ @ @ @ @ @ @ @ @ @ @ @ @ @ # o % . - t n C F q ; 2 2 7 > g D D C N m x x N S B B l u u 4 x c 9 - ; q N l   k n #.G # $ o @ @ + o h k * 4 e q 8 5 6 s f 8 6 8 s b n n h n v M n h 0 ; # @ @ O X # 4 ",
"@ @ @ @ @ @ @ @ @ @ @ @ @ @ @ @ # O = > k G J S Z 9 f O.M 6 > S D F Z B m z l m V b c a i f ; 3 l n k 2 = j n * o ; J h   # @ % $ # # x v : 7 t 0 t d d p 7 2 s c m n l x k A D c h e < $ + O O @ O $ 6 "
};
