/* XPM */
static char *_1a65a7227ca413b813be22fedaf8d8frktNCld3bjR0FqlH[] = {
/* columns rows colors chars-per-pixel */
"53 50 145 2 ",
"   c None",
".  c #A60E10",
"X  c #AB0F11",
"o  c #B30F12",
"O  c #BF0F13",
"+  c #A61110",
"@  c #AC1111",
"#  c #A71910",
"$  c #AD1C11",
"%  c #B31212",
"&  c #BB1213",
"*  c #B41C12",
"=  c #BB1C12",
"-  c #AD2210",
";  c #AF2A10",
":  c #B42411",
">  c #BB2312",
",  c #B32C11",
"<  c #BB2A11",
"1  c #B53311",
"2  c #BC3311",
"3  c #B53B10",
"4  c #BC3C11",
"5  c #C70F14",
"6  c #C31314",
"7  c #C81414",
"8  c #C31913",
"9  c #C91C14",
"0  c #C22213",
"q  c #CA2314",
"w  c #C42C13",
"e  c #C92C13",
"r  c #C33312",
"t  c #CC3414",
"y  c #C33B12",
"u  c #CB3C13",
"i  c #D03E13",
"p  c #B74210",
"a  c #BC4311",
"s  c #BD4B11",
"d  c #BE5310",
"f  c #C24111",
"g  c #CA4412",
"h  c #C24911",
"j  c #CA4912",
"k  c #C45411",
"l  c #CA5312",
"z  c #C35B11",
"x  c #CC5F11",
"c  c #D25513",
"v  c #D25C12",
"b  c #C66311",
"n  c #CB6311",
"m  c #CB6B11",
"M  c #D36412",
"N  c #D86513",
"B  c #D26D12",
"V  c #D96C13",
"C  c #CE7311",
"Z  c #CE7A11",
"A  c #D37311",
"S  c #DA7512",
"D  c #D47C11",
"F  c #DB7B12",
"G  c #D48311",
"H  c #DA8312",
"J  c #DB8412",
"K  c #D58811",
"L  c #D78C11",
"P  c #D68F11",
"I  c #D68A11",
"U  c #DF8812",
"Y  c #DC8C12",
"T  c #DF8C12",
"R  c #D98A11",
"E  c #DA9511",
"W  c #DA9711",
"Q  c #DA9311",
"!  c #DF9911",
"~  c #DC9A11",
"^  c #DB9C11",
"/  c #DD9C11",
"(  c #DE9C11",
")  c #E08F12",
"_  c #E09212",
"`  c #E29B12",
"'  c #E09C11",
"]  c #DDA111",
"[  c #DEA411",
"{  c #DEA411",
"}  c #E1A311",
"|  c #E2A311",
" . c #E0A911",
".. c #E4A811",
"X. c #E1AD11",
"o. c #E3AE11",
"O. c #E5AD11",
"+. c #E5AE11",
"@. c #E6AF11",
"#. c #E2AC11",
"$. c #E3B011",
"%. c #E3B111",
"&. c #E6B011",
"*. c #E5B211",
"=. c #E5B311",
"-. c #E6B211",
";. c #E5B411",
":. c #E4B511",
">. c #E5B511",
",. c #E7B411",
"<. c #E7B511",
"1. c #E5B711",
"2. c #E6B611",
"3. c #E7B611",
"4. c #E7B711",
"5. c #E5B311",
"6. c #E8B611",
"7. c #E7BA11",
"8. c #E6BB11",
"9. c #E7BA11",
"0. c #E8B811",
"q. c #E8B911",
"w. c #E8BA11",
"e. c #E8BB11",
"r. c #E8BC11",
"t. c #E9BC11",
"y. c #E8BD11",
"u. c #E8BE11",
"i. c #E8BF11",
"p. c #E9BF11",
"a. c #E8BD11",
"s. c #E9C011",
"d. c #E9C111",
"f. c #EAC011",
"g. c #EAC111",
"h. c #E9C211",
"j. c #E9C311",
"k. c #EAC211",
"l. c #EAC311",
"z. c #EAC411",
"x. c #EBC411",
"c. c #EAC511",
"v. c #EBC511",
"b. c #EBC611",
"n. c #EAC211",
/* pixels */
"                                                                                                          ",
"                                                    l.                                                    ",
"                                                  u.w.u.                                                  ",
"                                                  @.V 3.                                                  ",
"                                                l.S 9 U z.                                                ",
"                                                o.r 5 g 3.                                                ",
"                                              l.C % 7 * K l.                                              ",
"                                              @.r % 7 o g w.                                              ",
"                                            x.S 6 % 7 % 8 ) u.                                            ",
"                                            o.r 6 % 7 @ 6 f 3.                                            ",
"                                          l.C % 6 % 7 % 6 % G z.                                          ",
"                                          @.r X 6 % 7 % 6 + u 3.                                          ",
"                                        j.C & @ 6 % 7 % 6 + 8 G j.                                        ",
"                                        o.1 & @ 6 % 6 % & % % 3 6.                                        ",
"                                      l.A % % % & % & & & % % % D v.                                      ",
"                                      @., % + & % & 6 & % & + % 3 >.                                      ",
"                                  z.z.C + % X % % & & & % & @ @ @ D z.z.                                  ",
"                      z.l.u.3...~ K m ; X $ % o % & & & % % % + X ; m G E [ $.9.l.l.z.                    ",
"        v.v.j.w.*.] Q F M s 4 < # % . . 3 L D k r = & O % % @ X + X . @ # > 2 p v S G ~ ..$.7.j.v.v.      ",
"  j.y.` H m k g t 0 @ X & o X X % + @ z $.l.l.u.*.~ M = % @ 2 a $ . @ . % X X O O X @ = e t h z A _ w.j.  ",
"  j.w.V 9 5 o X o 6 7 & + % & % + > Z 9.l.u.u.l.j.} j & % @ * Z ^ k # o @ % & @ X & 7 & o o o 5 9 F p.    ",
"    p.w.N 7 7 7 & % % & 6 & % % 4 E u.l.u.l.i.i.G < O % % + . - E i.A * % % % & 6 & * % & 7 7 9 F p.      ",
"      j.w.n * O 6 7 7 & % & & = U l.l.l.u.l.$.b * o & % @ @ + . 4 3.j.B * O 6 & % & 7 7 6 & * D p.        ",
"        j.w.n * @ % & & 6 6 & & j 3.i.u.l./ k C 4 o & % @ + + @ % G j.$.u o & & 7 & % % X = D y.          ",
"            p.V 9 6 & & % & & & & A l.9.D f E j./ < % % + X @ % o l } w.F & & & % % & 6 9 J j.            ",
"              p.m * o & & & & & & 0 R M = < ' j.l.K = X + @ % & & r M ( ..> & & & & % * H p.              ",
"                y.C = o % % % % % & = % & & g +.l.l.A # @ % % & & 2 l R >.2 o % % % = G p.                ",
"                  p.S * % % % % % % % % % % o x u.u.9.z % % % % o y k G w.2 o % % = U j.                  ",
"                    p.Z * @ % @ @ @ @ @ @ @ + # D l.l.$.s X + @ X z a P $.> % X : G j.                    ",
"                      j.D $ . @ @ @ + X + + X X : ~ l.l...1 . . , Z 2 $.E $ . - K j.                      ",
"                        j.G $ + . + + . + + : * % f $.l.l.~ : - Z s b j.d . : I j.                        ",
"                          p.b . + + @ @ @ * L Q r X z i.l.z.H 4 h a $.Q $ . n j.                          ",
"                          j.k . @ @ @ @ % m k.k...m a G j.p.p.B < ( | 1 @ . d p.                          ",
"                          w.a . + % @ % 2 A 6.k.j.j.>.z ( k.j.w.x v 2 % @ X a w.                          ",
"                          $., X % @ % , M A j m ] j.v.} k $.p.j.$.a % @ % @ ; o.                          ",
"                          } = X @ & a ] S g * o : s C I s x p.p.j.[ 1 & @ @ = (                           ",
"                        v.I + % & s $.j.$.r o % @ X . @ @ * H j.p.j.Q : & % @ K v.                        ",
"                        v.A O * d $.v.j.F & % @ @ @ + . @ X < ( k.p.p.H $ & & m j.                        ",
"                        p.v X , +.j.j.,.u o % % + @ . + @ @ % 4 $.p.p.p.c X o c j.                        ",
"                        7.a o u w.k.k.F % & @ @ . + - + . % @ % n p.j.j.M 6 X 4 w.                        ",
"                        $.< 7 = D ' G e @ & X % , C [ A , * X & * D +.` r % 7 < #.                        ",
"                        } q & % 7 = 6 % o % , B [ j.v.j.o.A , % X & w : 7 % & 9 '                         ",
"                      v.Q 6 @ 7 & o 7 X w n #.j.b.        j.o.A w @ 6 o & 7 @ & U v.                      ",
"                      v.S @ & 7 X 5 < b ..p.v.              k.k.o.m w 6 X 7 6 X B j.                      ",
"                      j.z O 7 o > M ' k.v.                      j.j...V < o 7 O h j.                      ",
"                      p.j 5 8 z } j.k.                              j.j.#.n e 5 u >.                      ",
"                      $.i c ( y.v.                                      j.j...N u +.                      ",
"                      6.} y.v.                                              j.j...w.j.                    ",
"                    j.j.j.                                                      j.j.p.                    ",
"                    p.                                                                                    "
};
