/* XPM */
static char *_c1e3dd7d80d4e54c21577c49d795f33Yl4yS4tjpLdMDgMt[] = {
/* columns rows colors chars-per-pixel */
"50 28 129 2 ",
"   c #000001",
".  c #0A0100",
"X  c #100200",
"o  c #1B0201",
"O  c #250302",
"+  c #2C0301",
"@  c #340401",
"#  c #3C0402",
"$  c #430502",
"%  c #4C0602",
"&  c #540602",
"*  c #5C0602",
"=  c #5D0802",
"-  c #640602",
";  c #6C0602",
":  c #650802",
">  c #6B0802",
",  c #730602",
"<  c #7B0601",
"1  c #730802",
"2  c #7C0803",
"3  c #820702",
"4  c #8C0702",
"5  c #840902",
"6  c #8A0903",
"7  c #8D0801",
"8  c #8C0901",
"9  c #8F0804",
"0  c #8C0801",
"q  c #960701",
"w  c #920900",
"e  c #930900",
"r  c #960900",
"t  c #960902",
"y  c #920904",
"u  c #980901",
"i  c #9B0801",
"p  c #9C0800",
"a  c #9C0900",
"s  c #9C0901",
"d  c #AA0700",
"f  c #A10800",
"g  c #A30901",
"h  c #A60900",
"j  c #A70900",
"k  c #A70802",
"l  c #A70804",
"z  c #A70802",
"x  c #A90800",
"c  c #A90B00",
"v  c #A80A01",
"b  c #AB0A00",
"n  c #AA0803",
"m  c #AB0A02",
"M  c #AC0900",
"N  c #AD0900",
"B  c #AF0800",
"V  c #AE0A00",
"C  c #AE0A01",
"Z  c #AF0B01",
"A  c #AD0802",
"S  c #AC0902",
"D  c #AE0903",
"F  c #AF0B02",
"G  c #AD0A01",
"H  c #B00700",
"J  c #B20700",
"K  c #B00702",
"L  c #B30703",
"P  c #B40700",
"I  c #B00700",
"U  c #BD0703",
"Y  c #B00800",
"T  c #B00900",
"R  c #B10900",
"E  c #B10801",
"W  c #B00901",
"Q  c #B30800",
"!  c #B30801",
"~  c #B10B00",
"^  c #B10A01",
"/  c #B20A00",
"(  c #B20A01",
")  c #B10803",
"_  c #B00903",
"`  c #B20902",
"'  c #B10A02",
"]  c #B20B02",
"[  c #B30B02",
"{  c #B40900",
"}  c #B50900",
"|  c #B50801",
" . c #B40901",
".. c #B70900",
"X. c #B50A00",
"o. c #B60A00",
"O. c #B50802",
"+. c #B40902",
"@. c #B60902",
"#. c #B70902",
"$. c #B60903",
"%. c #B50A03",
"&. c #B70A03",
"*. c #B20904",
"=. c #B40804",
"-. c #B70A04",
";. c #B10901",
":. c #BA0900",
">. c #BA0901",
",. c #B80A00",
"<. c #B80A01",
"1. c #BB0A00",
"2. c #B90802",
"3. c #BB0803",
"4. c #BA0903",
"5. c #B90B02",
"6. c #BB0A02",
"7. c #BE0900",
"8. c #BC0A00",
"9. c #BE0A00",
"0. c #BC0902",
"q. c #BE0804",
"w. c #BB0901",
"e. c #C00901",
"r. c #C30B00",
"t. c #C50A01",
"y. c #C60903",
"u. c #C50A03",
"i. c #C30A05",
/* pixels */
"E E ] E ] E E E ] E E E E ] ] E E ] X.E E X.*.E E E ] ] E E E ] E X.E E [ E E E ] D ] E ] E E E ] E ",
"E E E E E E E E E X.E E E E E E E E E *.K E X.D E E E E E E E E E E E E E E E E E E E E E E E E E E ",
"E E ] E E ] ] E E E D K E ] E E F ] E E *.E K A F D E E D ] E E ] E K E ] E E F ] E E ] ] E E E ] E ",
"E E E D E E E D E E E D D E D D D D D D A X.E ,.X.,.E D E D D ] E E E E D E F E ] E E E E E E D ] E ",
"E E ] E E E ] E K ,.q.2.7.7.2.7.7.X.,.7.,.K X.w 4 2 D X.E 7.7.,.,.q.,.-.,.X.X.-.E E E E ] E E ] E E ",
"E ] D E E ] ] E X.2 - ; - ; 3 & * 2 * & ; ,.E 6 @   q X.,.; $ & , % $ > & # $ @ < 5.D E ] E E E E E ",
"E E E E E E D E X.7 + @ @ @ % & + 1 $ o @ p i.w .   - y.w @ . # 1 @ * @ + @ + @ r X.] D E E ] F ] E ",
"E E ] E ] E E E E ,.3 @ # $ # - - * ; O o % $         @ # o O - # & & + # @ @ 6 X.E D X.E E *.E ] E ",
"E E E E E E X.E E E X.7 % @ # $ ; % & 1 $ O @         + @ $ > $ $ * O @ @ & p X.E E E E E E E E E E ",
"E ] E E E ] E E D E E X.D 5 % # $ > $ # & * , .       - = % @ & ; $ $ & 6 X.X.D ] E E E E E E ] E E ",
"E E ] E E E [ E E X.[ E ] ,.X.D x E g > $ @ & . . .   % @ # > x X.X.,.[ X.K E ] E E E E E E E E [ E ",
"E X.X.E E X.X.E E E ] E E E E *.E ] X.X.g 3 , O + # o - 3 g ,.E D X.D E A E E E ] E E ] ] E E ] ] E ",
"E E E E E E E D E E E E E E E E E D D E [ r.F - % & : x 7.X.D E E E [ E X.E E E E E E E E E E E E E ",
"E E ] E E E E E E ] E X.] F E E ] ] E E E v 1 = & * % * n *.E E E E E ] E E E F ] E E D F E E ] E E ",
"E E E E E E E E *.E X.E D ] X.X.E -.X.] m : * r * : 9 & : i X.x X.E E E ] E E X.] E E E E E E D ] E ",
"E E ] E E ] ] E E X.E D E ] E E -.p i ,.* * y.* O 9 , X.& & -.> 7 X.F D X.E E D E E E ] ] E E ] ] E ",
"E ] ] E E E ] E D ] ] ] E ] ] D ,., > D * 5 5 1 O + @ $ w * D > ; ,.E ] ] E E F ] E E ] ] E E E [ E ",
"E E E E E E E E E E E E D E E E ,.2 - D * t $ # O O ; 5 5 & g 5 9 ,.*.E E E E ] E E E E E E E E ] E ",
"E E E E E ] E E E E E E E ] ] E X.l - E * > r.> 7 # & u.5 ; x & x X.] E D E D E E E E E ] E E E E E ",
"E F E E E D E D E E E E E E E E D X.- > E , * l 2 - x , 1 E 6 ; ] E D E E X.E E D E E D E E E D [ E ",
"E E ] E E ] E E E ] ] E E ] E E ] ] D = 2 E < , % $ 2 5 p > $ *.] E D E ] E E ] ] E E ] ] D E ] ] E ",
"E ] ] E E ] ] E E E E ] ] E E E E E ,.g p 5 2 r 5 < 6 y 6 : x *.E ] E E ] E E E ] E E E E E E E E E ",
"] ] E ] E ] ] E D ] ] E E ] ] E E ] E ] ,.y * - & & - w E ,.X.*.E E E E ] E E E E E E ] ] E ] E [ E ",
"E E ] E E E ] E E E ] E E ] E E E E E E E 5.7.X.D D -.X.] D E E ] ] E E E X.E ] ] E E ] E E E ] ] E ",
"E E ] E E E E E E E E E E ] E E ] E E E ] E D E ] E E D E E E ] E E E E [ E E ] ] E E E X.E E E E E ",
"E E E E E E E E E E E E E ] E E E ] E E E E E E E ] E E E ] E E E ] E E [ E E E E E E E E E E E [ E ",
"E E E E E E E E E D E E E E E E E E E E E D E E E E E E E E E E E E E E E E E E E E E E E E E E ] E ",
"E E E E E E [ E D ] ] E ] ] E E E ] E E ] E E E E ] E E ] E E E E [ E E ] E E ] ] E E E ] E E [ E E "
};
