/* XPM */
static char *_18d888ffb9c48bda165aade556fdd14kOMh46GaCGdb9kST[] = {
/* columns rows colors chars-per-pixel */
"78 50 254 2 ",
"   c #020101",
".  c #0B0001",
"X  c #010802",
"o  c #02010B",
"O  c #0B020A",
"+  c #00090B",
"@  c #0D0900",
"#  c #130001",
"$  c #1C0000",
"%  c #120009",
"&  c #1A0008",
"*  c #010310",
"=  c #0E0010",
"-  c #000A10",
";  c #240000",
":  c #2B0000",
">  c #2D020C",
",  c #270A05",
"<  c #330100",
"1  c #3B0000",
"2  c #3D0009",
"3  c #3A0C00",
"4  c #3C1207",
"5  c #320010",
"6  c #420000",
"7  c #4B0000",
"8  c #4D0C00",
"9  c #540000",
"0  c #5C0100",
"q  c #590306",
"w  c #48180C",
"e  c #5C1D1B",
"r  c #5B1110",
"t  c #520B15",
"y  c #630000",
"u  c #6B0101",
"i  c #630A00",
"p  c #6C0B00",
"a  c #650209",
"s  c #6B0B0A",
"d  c #6A000C",
"f  c #740000",
"g  c #7C0101",
"h  c #770B0C",
"j  c #790908",
"k  c #7E1103",
"l  c #79140C",
"z  c #7A0613",
"x  c #691B13",
"c  c #701014",
"v  c #521922",
"b  c #601823",
"n  c #790C23",
"m  c #7B2025",
"M  c #830100",
"N  c #8C0302",
"B  c #850A04",
"V  c #8C0B03",
"C  c #83030C",
"Z  c #8A020C",
"A  c #840B0C",
"S  c #940101",
"D  c #9B0102",
"F  c #940A04",
"G  c #9C0A04",
"H  c #930C0C",
"J  c #980108",
"K  c #8B1200",
"L  c #92120C",
"P  c #991709",
"I  c #850312",
"U  c #870E13",
"Y  c #930012",
"T  c #950B12",
"R  c #9C0914",
"E  c #861817",
"W  c #9B1414",
"Q  c #9A191C",
"!  c #95161A",
"~  c #A30102",
"^  c #AB0204",
"/  c #A6020A",
"(  c #AA0C0C",
")  c #AA0A08",
"_  c #B30003",
"`  c #BA0203",
"'  c #B50C0D",
"]  c #B60309",
"[  c #AA110D",
"{  c #A51207",
"}  c #BC120D",
"|  c #B41609",
" . c #AB0F12",
".. c #A40818",
"X. c #B30C12",
"o. c #BD0D12",
"O. c #BA0416",
"+. c #AC1114",
"@. c #AD1B17",
"#. c #AC161B",
"$. c #A41B19",
"%. c #A51617",
"&. c #B51114",
"*. c #BC1B14",
"=. c #BC141B",
"-. c #B31A18",
";. c #B61819",
":. c #8C2618",
">. c #A72319",
",. c #B4221C",
"<. c #BB2019",
"1. c #B82213",
"2. c #8F0B22",
"3. c #9A1823",
"4. c #B60F21",
"5. c #A31221",
"6. c #A81927",
"7. c #B41421",
"8. c #B81C24",
"9. c #B51F33",
"0. c #8C2727",
"q. c #90242E",
"w. c #992C39",
"e. c #822434",
"r. c #BD2524",
"t. c #BE252A",
"y. c #BD2929",
"u. c #A7242F",
"i. c #C40303",
"p. c #C20C0B",
"a. c #CD0D0A",
"s. c #CD0503",
"d. c #D60704",
"f. c #DC0303",
"g. c #D30A03",
"h. c #DB0C04",
"j. c #DC060C",
"k. c #D50B0C",
"l. c #DE0B0D",
"z. c #D6050A",
"x. c #CC1101",
"c. c #CC140C",
"v. c #C71B0C",
"b. c #C51508",
"n. c #D61C07",
"m. c #D4140D",
"M. c #DC120C",
"N. c #D91506",
"B. c #C30E12",
"V. c #CA0B15",
"C. c #CB0D1C",
"Z. c #C10712",
"A. c #DD0D13",
"S. c #D50F1A",
"D. c #DC0D1A",
"F. c #D50A16",
"G. c #C51314",
"H. c #CB1314",
"J. c #C31A14",
"K. c #CE1419",
"L. c #C61C1A",
"P. c #CA1918",
"I. c #D21411",
"U. c #DD1114",
"Y. c #D31A14",
"T. c #DB1A13",
"R. c #D4131B",
"E. c #DB141A",
"W. c #D51B1C",
"Q. c #E50201",
"!. c #EC0202",
"~. c #E50A02",
"^. c #EC0A03",
"/. c #E5030B",
"(. c #EC040B",
"). c #E40B0B",
"_. c #EC0A0C",
"`. c #F50302",
"'. c #FA0500",
"]. c #FC0400",
"[. c #FF0400",
"{. c #FE0501",
"}. c #FA0205",
"|. c #FF0004",
" X c #FD0304",
".X c #FE0106",
"XX c #FD0205",
"oX c #FD0201",
"OX c #F30A02",
"+X c #FD0A02",
"@X c #F3040B",
"#X c #F90209",
"$X c #FE0009",
"%X c #FB030A",
"&X c #F30A0B",
"*X c #FC0B0B",
"=X c #E51202",
"-X c #EB1301",
";X c #E6120A",
":X c #EB1708",
">X c #F31201",
",X c #FC1303",
"<X c #F5110B",
"1X c #FC120B",
"2X c #E50611",
"3X c #EC0512",
"4X c #E50C14",
"5X c #EC0D14",
"6X c #EB051A",
"7X c #EC0C19",
"8X c #E30C1C",
"9X c #F50413",
"0X c #FC0412",
"qX c #F20C15",
"wX c #FB0E12",
"eX c #F30B1A",
"rX c #FC0D1C",
"tX c #F40518",
"yX c #E31414",
"uX c #EB1415",
"iX c #E51A13",
"pX c #E3131C",
"aX c #EA141B",
"sX c #E31B1E",
"dX c #EA1D1B",
"fX c #F21315",
"gX c #F3121A",
"hX c #FF1514",
"jX c #C9201D",
"kX c #C40D21",
"lX c #D20E22",
"zX c #DF0F29",
"xX c #C31523",
"cX c #CC1623",
"vX c #CB1C25",
"bX c #C91928",
"nX c #D41224",
"mX c #DD1422",
"MX c #D31B24",
"NX c #DA192E",
"BX c #E21324",
"VX c #E41C24",
"CX c #EA1828",
"ZX c #F31B21",
"AX c #F41C2B",
"SX c #FE1930",
"DX c #E11933",
"FX c #CA2121",
"GX c #CA212C",
"HX c #C7272B",
"JX c #C02930",
"KX c #DB2726",
"LX c #F1212E",
"PX c #E12231",
/* pixels */
"                          .     o       . #   o o X   X X                   . 6 m.}.[.[.[.[.[.[.[.}.'.^._._.`.`.].].{.{.[.$X0X0X%X.X.X.X[.[.[.[.}.'.'.'..X[.",
"                                +       .     o o X   X                   . . 6 m.}.}.[.[.[..X[.[.}.`.&X_.(.(.+X].{.].].[.}.%X0X%X}..X[.[.[.[.[.}.}.'.'.[.[.",
"                                o   X X X     O o             o             . 6 H.}.[..X[.[.[.[.[. X#X`.#X%X}.[.[.].'.`.'.}.$X.X'.'.].}.[.[.[..X[.[.}.[.[.[.",
"                                o   X X X       o       .               . . . 6 m.}.[.[..X[..X[..X X`.`..X.X[.[.[.}.'.OX'.].}.}.'.'.].]..X[.[.[..X[.[.[.[.[.",
"                                O   X X X X O   o     . . . o             . . 6 m.`.[..X[.[.{.]..X.X.X}.[.[.[.[.[.{.{.{.{.].'.'.].].'.'.}.[..X[..X[.[.[.[.[.",
"                                  O   # . . .   o o . . # .               . . 6 m.}.[.[.[.[..X.X.X$X[.[.[.[.{.}.#X#X#X X].'.'.OX}.}.'.'.}.}.[..X.X.X.X[.[.[.",
"                                  . $ w w $ . X   o   . . .   o             O 6 H.}.[.[.[.[.[..X$X.X[.[.}.'.^.^.(.3X2X2X/.`.'.].[.[.[.}.].}.}..X.X.X[.[.[.[.",
"                                  $ 1 0.0.< $   o   O                   . . . 1 m.}.[..X[..X[..X.X.X[.[.].`.^.^.4XD.V.G.p.z.&X[.[.[.[.[.}.].}..X.X[..X[.[.[.",
"                                . $ C t.8.u ; .   o o O                 . . . 1 I.}.[.[.[.[..X}.$X[.[.[.'.'.}.&X/.MXT 7 y ,.2X$X}.[.[.[.}.{. X!.}..X[.[.[.[.",
"                    X           # < ;.E.S. .< #           X                 . 6 I.}.[.[.[.[.[..X}.`.}.[.].}.[.#X6X] 9 6 < 0 MX7X`.#X.X.X[.}. X X}..X[.[.[.[.",
"                            . # ; u R.9X(.R.y $ O       X X X             . . 6 m.}.[..X[..X.X[.}.}.[.[.{.{.[.#XrXi.y < ; < u xX5X#X%X.X}.`.[.%X}.}.[.}.[.[.",
"                  X       O . $ 1 $.l.$X$X).W < . X                     .   . 6 c.}.[..X[.[.[.[.{.{.[.[.}.{.[..X0XaX#.9 < < 1 f P.4X/.(.#X.X[.[.[.{.}.}.[.[.",
"                X       . . . ; f vXQ.[.{.~.jXy $   X                       . 6 I.}.[..X[.[.[..X[..X{.}.`.}.[..X`.wXk.X.u < < : B ' W.yX@X{.[.}.[.[.}.}.}.[.",
".                 . .   % . . 1 #.l.+X[.[.OXc.! : .       .               . . 6 m.}.[.[.[.[.[.}.}..X*X&X`.*X{.[.[.`.^.yX .0 ; ; 6 g ;.Y.4X}.[.[.[.[.{.}.[.}.",
"                  .   . # . # r MX@X{.[.[.+Xh.8.7 #     # .               . . 6 m.}.[..X.X[.[.[..X`.).f.~.1X+X[.{.[.{.Q.BX#.1 3 : 7 k } 4X}.}.{.{.{.}.].`.}.",
".                 o . O O . < q.E.%X!.+X+X!.<XY.j 1     O .               .   1 c.].[.[.}.}.[.}.*X).) ~ ] M. X}.}.+X}.`.4XMX$.1 < : 6 N R._.'.{.{.].].].}.#X",
". . o +           O = =   % u *.M.&X!.`.1X+XQ.-Xb.y # + + o X X X   O O   X X < n.[.[..X!.'.+X!.aX&.7 < u -.).[.{.`.'._.z.E.sX^ 1 : : 1 Z MX2X}.'.'.].].[.[.",
"$ . O     # $ ; ; ; ; : : 9 ) iXN.h.CX4Xs.h.=Xh.:X~ 7 $ $ $ $ $ $ . $ # .     < x.{.`.`.hX^.Q.dX/ 0 : , : y G.qX!.*X*X(.uX).!.VXm $ ; 1 9 ~ aX#X'.OX].{.[.[.",
"$ $ # $ ; : 7 0 u g Z R X.a.~.~.x.~ ~ S f Q r.Y.5Xj.] ^ ( D g u 9 1 < : $ $ ; 9 N.].&X^.^.uXm.G 9 < ; $ $ : u G._.].+X+X`.`.#XR.r $ ; 1 f ` 5X X'.OX'.].[.[.",
"; 1 q a l P | v.m.I.E.A.(.*X{.OX` ~ S f 9 1 7 M kXCX7X/.^._.h.M.P.-.L k p 9 6 9 E.`.*X_.j.K.W 6 : < 1 1 : $ 1 g G.).`.`.`.&Xk.N ; 3 1 0 o.pX!. XOX'.'.'.[.[.",
"8 :.HXR.a.n.N.h.>XOX(.(.Q.^.`.'.-XN.vX9.u.z 1 1 a 5.S.@X].`.@XrX/._.;Xg.H.JXe.d S.@X@X3XMXB < $ $ 1 C T 7 ; ; < g J.h.Q.uXG.u 6 : < u ] 4X&X`. X`.'.}.[.[.[.",
": 9 ) pXuX^.~.>X`.`.}. XqXQ.!.^.N.S g j I u.E 1 : q O.uX,X}.!.@X*X}.].<XM.J 7 6 lXtX6XS.G 9 $ # : u C.NXL 7 ; : 1 j G.sXJ.g : : < y / aX@X`.+X`.`.`.$X$X.X.X",
"# $ 9 5.mX/.f.>X,X+X`.`.`.&X:XP.u : $ $ 1 B <.V : : g p.=X'.'.1X<Xf.Q.T.K 6 $ 6 nX6XMXF 6 < 1 < g G.qXqXE.D 7 1 : : A 6.u 1 ; ; 7 #.I.(.*X{.{.`.%X0XtXtX%X%X",
"  . ; q ..mXuX^.`.].+X`.%X_.} B : . + @ 0 | N.J.1 ; 0 +.=X^.'.!.Q.:XT.F 1 $ O 2 bXD.N 7 < < 6 g R.).#X!.!.sX( 7 < ; 1 7 6 : $ 1 %.W.d.^.+X}.[.{.9X8XD.D.8X2X",
"o = % ; 9 5.BX9X%X}.`.`.(.E.i $ $ . o : 1.-X!.N.s : 6 Y l.*XOX`.%XE.L < $ @ . ; y.S 9 1 ; < N nX5X&X@X#X%X9X/.' 6 3 $ : : 1 9 %.H.).=X^.`.{.{.!.4XcXg M r.<.",
"* O . # ; 9 / mX(.%X!.*X3X^ < # # % . < @.d.OXN.E : 1 I D.#X`._.8XD 7 # X   o 1 ,.D 7 < 6 k V.(.%X$X#X%X#X`.@XW.l ; $ & > 7 Q FXl._.~.^.+X{.`.uXJ.f 7 7 f ,.",
"X     # # $ 6 W 4XrX!.(.7X^ 7 : # , > : 1 K g.pXU < : f U.`.*XM.H 6 $   - o . 7 L.s.N f D E.fX`.}.{.{.}.`._.^.J.i ; $ % > 1 A FXuX`.{.*X`.`.yX*.y 6 < < f -.",
"          . $ 6 ( uX!.!.5XV.Z 7 6 x w.9 : 1 W 6.a < : 0 S.5XA.D 1 $ O o + o % 6 W.:Xi.` A._.`.[.}.+X{.`._.iX} M 1 : ; 5 : : 7 F yX`.%X%X!.uX*.u : < < 0 [ G.",
"O       O O   $ 6 F =XOX~.T.GXD _ m.A.MX0 < ; 4 > $ : y NXNXI < .   +   o O . 6 a.'.).;XiXh.Q.+X+X+X'.~.yX} f < < : 0 n : ; < 7 ^ ZX3XQ.SXvXy : 4 : 9 ;.pX/.",
"o   o   o     . $ 9 g.+X~.T.r./ M.^.&XU.@.7 #   O $ 1 E NXO.6 . X X X     . . 6 k.{.].!.=X=X!.`.{.].'.iX&.f 1 : : 9 7.4.z < : : 0 ( nXzXbXg : ; ; 9 +.E.9X0X",
"        o o o O $ 1 x.^.^.b.u 7 T vXs.E.;.q.> O   $ 9 1.E._ < @ O         X   6 I.[.+X}.`.OX%X#X[.[.9Xo.a : : 1 9 +.dX).E.M < ; : 7 3.u.a : $ : 6 #.LX!..X*X",
"  X X   o * * O . 6 KX).G.H : $ < h T #.3.c % O . ; 1 P R.xX< .     @ . X     1 m.}.{.+X}.[.$X%X`.gXC.g ; $ 2 9 7.I.Q.+X^.Y.f < , ; 6 7 : ; : 1 6.mX/.$X*X`.",
"X X     o o O . $ q xXcXp : # & $ $ ; ; ; $ .   . # . 1 5.9.< .             . 1 m.}.[.[.[.[.$X#XuXo.y ; $ : f ] ).!.-X^.^.;Xc.M : $ $ $ ; < 9  .D.9X#X].`.'.",
"X     o * o   . ; l =.S 1 # $ 2 1 ; $ ; : : : 1 e : # ; 9 2.e # .         . . 6 m.}.[.[.[.[.{.`._.N 1 $ # 1 R VX!.}.OX^.^.^.^.p.d : ; ; : 9 { E.@X$X].].'.'.",
". .     + +   # < :.[ 9 $ $ 0 6.8.S f f g M / bXMXF 6 < 9 3.x $ .         . . 6 H.}.[.[.[.[.[.#X(.^ 7 ; ; < h HX4X$X].`.OX<XOX7X8.f 7 6 y G pX@X%X.X#X].}.].",
"$ . O o + +   $ 1 >.| f < 9 ..DXD.E.jX;.L.R.pX5X3XVXN 0 { y.p < # X         . 6 m.}.[..X.X[..X}.9XVXN 7 < ; < j S.rX%X`.OX+X}.9XBXO.g f ) Y.(.}..X[.`.'.].'.",
"# .     +     $ 9 -.T.i.S D F.6X3XaXJ.{ { L.yX2X(._.Y.b.z.R.P 6 $       .   . 6 m.`.[.[.[..X[.#X5X8XA.~ 6 ; : 1 Y lXeX}.]. X}.%X@XeXz.i.h.;X`.%X[.[.}.].`.^.",
". .   +     . : f } uX&Xg.k.AX8XD.) f 9 9 f [ W.gX(.uX5X#X4Xv.6 $         . . 6 m.}.[..X[.[.[.%X(.(.&XN.V 6 ; < 7 Y lX7X&X X X%X%X`.*X1XQ.^.+X[.[.[.[.}.^.^.",
"      + O   . : M R./.@XqXA.MX%.0 < : ; ; ; 1 u G.A.(.(.0XqXc.9 $ X         . 6 I.}.[..X[.[.[.}.`.wX`.Q.T.S 1 < : 7 A =.yX^.^.'.+X`.`.+X^.^.+X`.[.[.[.`.^.^.",
"    X     . . ; Z DXj.j.KXX.g 1 $ .   O     . ; 9 J MX8X3X2XW.g $       . . . 6 c.}.[.[..X[.[..X$X}.}.`._.H.B 1 2 : 6 U G.M.^.!.}.{.`.`.,X^.!.+X}.}.}.`.`._.",
"      X       ; 2.8.bX#.p 1 $ $ % O * + o o     $ : 7 g cXCXC.Z $       .   . 6 I.].[.[.[.[..X[.}.}.`.!._.4XV.R 1 < : 7 V c.~.{.[.}.`.^.^.`.}.}.'.'.`.}.'.'.",
".   X       X $ w.3.z 7 ; #     O o * * * + o   . . $ < u Y 5.q.$         . . 6 I.}.[..X[.[.[.[.[.}.'.!.&XqX9XV.g 6 1 6 u _ ,X{.[.}.OX^.^.'.}.[.'.].}.}.[.}.",
".     X       $ b q ; #   X X           o o   O . .     # : t v .       .   O 6 m.}.[.[.[..X{.].[.[.}.#X@X0X0X5XK.J 9 9 D k.OX{.[.$X%X%X}.[..X[.}.}.[.[.[.[.",
".   X     . . . $ $     . .   X   . .           . . X X X         X         . 6 c.}.[..X[.[.{.].{.{..X}.%X%X$X#XgXS.D N R.gX'.[..X$X.X$X.X.X.X[.[.[.[.[.[.}.",
"        . # . . .     . # # . O . .                 X   X +                 . 6 I.}.[..X[.[..X].`.}.[..X}.}.}.`.&X/.7XaXf._.1X}.[..X.X[..X[.[.}.[.[.[.[.'.'.",
"          . .   X X     # # O   . .             X X           +           . . 6 m.}.[.[.[.[.{. X`.`.[..X[.[.}.}.`.`.*X{.!.!. X[.[.}.}.[.[.[.}.}.}.[.[.}.].}.",
"O                   X     O     X     O O o * o       . X   . .             . 6 c.}.[..X[.[.[. X@X(.}.{.[.[.[..X{.*X`.!.+X*X!.&XOXOX'.`.}.[.[.}.].}.}.[.[.}.",
"    O         X                 X   o O * O o   O   . . .   . # .       . . . 6 I.}.[.[..X[..X}.0X`.`.[.[.[.}.[.[.`.+X+X}.}.%X@X`.OX'.`.[.[.[.}.'.`.}.[.[.[.",
"                                                                          . O 6 m.}.[..X.X[.[..X}.}.[.[.[.[..X[.[.[.[.[.[.[..X}.}.}.[.}.[.[.[.[.[.[.[.[..X[.",
"                                                                            . 6 c.}.[.[.[.[.[..X[.[.[.[.[.[.[.[..X[.[.[.[.[.[.[.[.[.[.[.[.[.[.[.[..X[.[.[.[."
};
